G75*
%MOIN*%
%OFA0B0*%
%FSLAX24Y24*%
%IPPOS*%
%LPD*%
%AMOC8*
5,1,8,0,0,1.08239X$1,22.5*
%
%ADD10C,0.0080*%
D10*
X001588Y003370D02*
X001588Y003690D01*
X001748Y003530D01*
X001535Y003530D01*
X001903Y003423D02*
X001957Y003370D01*
X002063Y003370D01*
X002117Y003423D01*
X001903Y003637D01*
X001903Y003423D01*
X001903Y003637D02*
X001957Y003690D01*
X002063Y003690D01*
X002117Y003637D01*
X002117Y003423D01*
X002272Y003423D02*
X002272Y003637D01*
X002325Y003690D01*
X002432Y003690D01*
X002485Y003637D01*
X002485Y003584D01*
X002432Y003530D01*
X002272Y003530D01*
X002272Y003423D02*
X002325Y003370D01*
X002432Y003370D01*
X002485Y003423D01*
X002640Y003423D02*
X002693Y003370D01*
X002800Y003370D01*
X002853Y003423D01*
X002747Y003530D02*
X002693Y003530D01*
X002640Y003477D01*
X002640Y003423D01*
X002693Y003530D02*
X002640Y003584D01*
X002640Y003637D01*
X002693Y003690D01*
X002800Y003690D01*
X002853Y003637D01*
X003008Y003690D02*
X003008Y003370D01*
X003222Y003690D01*
X003222Y003370D01*
X003376Y003370D02*
X003590Y003370D01*
X003376Y003584D01*
X003376Y003637D01*
X003430Y003690D01*
X003537Y003690D01*
X003590Y003637D01*
X005470Y003561D02*
X005470Y003280D01*
X005890Y003280D01*
X005890Y003561D01*
X005890Y003741D02*
X005680Y003741D01*
X005750Y003881D01*
X005750Y003951D01*
X005680Y004021D01*
X005540Y004021D01*
X005470Y003951D01*
X005470Y003811D01*
X005540Y003741D01*
X005680Y003421D02*
X005680Y003280D01*
X005470Y003100D02*
X005890Y003100D01*
X005890Y002820D02*
X005470Y003100D01*
X005470Y002820D02*
X005890Y002820D01*
X005890Y003741D02*
X005890Y004021D01*
X005890Y004201D02*
X005680Y004201D01*
X005750Y004341D01*
X005750Y004411D01*
X005680Y004481D01*
X005540Y004481D01*
X005470Y004411D01*
X005470Y004271D01*
X005540Y004201D01*
X005890Y004201D02*
X005890Y004481D01*
X005890Y004662D02*
X005680Y004662D01*
X005750Y004802D01*
X005750Y004872D01*
X005680Y004942D01*
X005540Y004942D01*
X005470Y004872D01*
X005470Y004732D01*
X005540Y004662D01*
X005890Y004662D02*
X005890Y004942D01*
X005890Y005122D02*
X005470Y005402D01*
X005890Y005402D01*
X005890Y005122D02*
X005470Y005122D01*
X006920Y007720D02*
X006920Y007934D01*
X006920Y007827D02*
X007240Y007827D01*
X007134Y007720D01*
X007240Y008088D02*
X006920Y008088D01*
X006920Y008302D02*
X007240Y008302D01*
X007240Y008088D02*
X006920Y008302D01*
X007080Y008457D02*
X007080Y008670D01*
X006920Y008617D02*
X007240Y008617D01*
X007080Y008457D01*
X006973Y008825D02*
X007187Y009038D01*
X006973Y009038D01*
X006920Y008985D01*
X006920Y008878D01*
X006973Y008825D01*
X007187Y008825D01*
X007240Y008878D01*
X007240Y008985D01*
X007187Y009038D01*
X007187Y009193D02*
X007240Y009247D01*
X007240Y009353D01*
X007187Y009407D01*
X006973Y009193D01*
X006920Y009247D01*
X006920Y009353D01*
X006973Y009407D01*
X007187Y009407D01*
X007080Y009562D02*
X007080Y009775D01*
X006920Y009722D02*
X007240Y009722D01*
X007080Y009562D01*
X006973Y009193D02*
X007187Y009193D01*
X008010Y008953D02*
X008113Y008798D01*
X008217Y008953D01*
X008320Y008798D02*
X008010Y008798D01*
X008062Y008646D02*
X008010Y008594D01*
X008010Y008491D01*
X008062Y008439D01*
X008165Y008543D02*
X008165Y008594D01*
X008113Y008646D01*
X008062Y008646D01*
X008165Y008594D02*
X008217Y008646D01*
X008269Y008646D01*
X008320Y008594D01*
X008320Y008491D01*
X008269Y008439D01*
X008269Y008287D02*
X008217Y008287D01*
X008165Y008235D01*
X008113Y008287D01*
X008062Y008287D01*
X008010Y008235D01*
X008010Y008132D01*
X008062Y008080D01*
X008165Y008183D02*
X008165Y008235D01*
X008269Y008287D02*
X008320Y008235D01*
X008320Y008132D01*
X008269Y008080D01*
X009210Y008080D02*
X009210Y008287D01*
X009210Y008183D02*
X009520Y008183D01*
X009417Y008080D01*
X009469Y008439D02*
X009262Y008439D01*
X009469Y008646D01*
X009262Y008646D01*
X009210Y008594D01*
X009210Y008491D01*
X009262Y008439D01*
X009469Y008439D02*
X009520Y008491D01*
X009520Y008594D01*
X009469Y008646D01*
X009520Y008798D02*
X009210Y008798D01*
X009313Y008798D02*
X009210Y008953D01*
X009313Y008798D02*
X009417Y008953D01*
X009503Y004240D02*
X009450Y004187D01*
X009450Y004134D01*
X009503Y004080D01*
X009450Y004027D01*
X009450Y003973D01*
X009503Y003920D01*
X009610Y003920D01*
X009663Y003973D01*
X009557Y004080D02*
X009503Y004080D01*
X009503Y004240D02*
X009610Y004240D01*
X009663Y004187D01*
X009295Y004187D02*
X009242Y004240D01*
X009135Y004240D01*
X009081Y004187D01*
X009081Y004134D01*
X009135Y004080D01*
X009081Y004027D01*
X009081Y003973D01*
X009135Y003920D01*
X009242Y003920D01*
X009295Y003973D01*
X009188Y004080D02*
X009135Y004080D01*
X008927Y004134D02*
X008927Y003973D01*
X008873Y003920D01*
X008713Y003920D01*
X008713Y004134D01*
X008558Y004080D02*
X008452Y004080D01*
X008558Y003920D02*
X008558Y004240D01*
X008345Y004240D01*
X008493Y003190D02*
X008440Y003137D01*
X008440Y003084D01*
X008493Y003030D01*
X008440Y002977D01*
X008440Y002923D01*
X008493Y002870D01*
X008600Y002870D01*
X008653Y002923D01*
X008547Y003030D02*
X008493Y003030D01*
X008493Y003190D02*
X008600Y003190D01*
X008653Y003137D01*
X008808Y003137D02*
X008808Y002923D01*
X008862Y002870D01*
X008968Y002870D01*
X009022Y002923D01*
X008808Y003137D01*
X008862Y003190D01*
X008968Y003190D01*
X009022Y003137D01*
X009022Y002923D01*
X009176Y002870D02*
X009390Y002870D01*
X009283Y002870D02*
X009283Y003190D01*
X009390Y003084D01*
X005817Y008480D02*
X005920Y008583D01*
X005610Y008583D01*
X005610Y008480D02*
X005610Y008687D01*
X005610Y008839D02*
X005920Y008839D01*
X005765Y008891D02*
X005610Y009046D01*
X005713Y008839D02*
X005920Y009046D01*
X004720Y008953D02*
X004720Y008850D01*
X004669Y008798D01*
X004462Y008798D01*
X004669Y009005D01*
X004462Y009005D01*
X004410Y008953D01*
X004410Y008850D01*
X004462Y008798D01*
X004462Y008646D02*
X004410Y008594D01*
X004410Y008491D01*
X004462Y008439D01*
X004669Y008646D01*
X004462Y008646D01*
X004669Y008646D02*
X004720Y008594D01*
X004720Y008491D01*
X004669Y008439D01*
X004462Y008439D01*
X004410Y008287D02*
X004410Y008080D01*
X004410Y008183D02*
X004720Y008183D01*
X004617Y008080D01*
X004720Y008953D02*
X004669Y009005D01*
X004720Y009157D02*
X004410Y009157D01*
X004513Y009157D02*
X004720Y009364D01*
X004565Y009209D02*
X004410Y009364D01*
X003520Y009046D02*
X003313Y008839D01*
X003365Y008891D02*
X003210Y009046D01*
X003210Y008839D02*
X003520Y008839D01*
X003520Y008583D02*
X003210Y008583D01*
X003210Y008480D02*
X003210Y008687D01*
X003417Y008480D02*
X003520Y008583D01*
X002340Y008617D02*
X002180Y008457D01*
X002180Y008670D01*
X002020Y008617D02*
X002340Y008617D01*
X002287Y008825D02*
X002073Y008825D01*
X002287Y009038D01*
X002073Y009038D01*
X002020Y008985D01*
X002020Y008878D01*
X002073Y008825D01*
X002287Y008825D02*
X002340Y008878D01*
X002340Y008985D01*
X002287Y009038D01*
X002287Y009193D02*
X002073Y009193D01*
X002287Y009407D01*
X002073Y009407D01*
X002020Y009353D01*
X002020Y009247D01*
X002073Y009193D01*
X002287Y009193D02*
X002340Y009247D01*
X002340Y009353D01*
X002287Y009407D01*
X002180Y009562D02*
X002180Y009775D01*
X002020Y009722D02*
X002340Y009722D01*
X002180Y009562D01*
X002020Y008302D02*
X002340Y008302D01*
X002340Y008088D02*
X002020Y008302D01*
X002020Y008088D02*
X002340Y008088D01*
X002340Y007827D02*
X002020Y007827D01*
X002020Y007720D02*
X002020Y007934D01*
X002234Y007720D02*
X002340Y007827D01*
M02*
