G75*
%MOIN*%
%OFA0B0*%
%FSLAX24Y24*%
%IPPOS*%
%LPD*%
%AMOC8*
5,1,8,0,0,1.08239X$1,22.5*
%
%ADD10C,0.0080*%
D10*
X000604Y003366D02*
X001025Y003366D01*
X001025Y003646D01*
X000814Y003506D02*
X000814Y003366D01*
X000814Y003826D02*
X000674Y003826D01*
X000604Y003897D01*
X000604Y004037D01*
X000674Y004107D01*
X000814Y004107D01*
X000884Y004037D01*
X000884Y003897D01*
X000814Y003826D01*
X000744Y004287D02*
X000884Y004427D01*
X000884Y004497D01*
X000884Y004287D02*
X000604Y004287D01*
X000604Y005131D02*
X001025Y005131D01*
X000814Y005131D02*
X000814Y005411D01*
X000604Y005411D02*
X001025Y005411D01*
X000884Y005661D02*
X000884Y005801D01*
X000814Y005872D01*
X000604Y005872D01*
X000604Y005661D01*
X000674Y005591D01*
X000744Y005661D01*
X000744Y005872D01*
X000604Y006052D02*
X000884Y006052D01*
X000884Y006122D01*
X000814Y006192D01*
X000884Y006262D01*
X000814Y006332D01*
X000604Y006332D01*
X000604Y006192D02*
X000814Y006192D01*
X000884Y006512D02*
X000604Y006512D01*
X000604Y006652D02*
X000814Y006652D01*
X000884Y006722D01*
X000814Y006792D01*
X000604Y006792D01*
X000674Y006972D02*
X000604Y007043D01*
X000604Y007183D01*
X000674Y007253D01*
X000814Y007253D01*
X000884Y007183D01*
X000884Y007043D01*
X000814Y006972D01*
X000674Y006972D01*
X000814Y006652D02*
X000884Y006582D01*
X000884Y006512D01*
X000884Y007433D02*
X000604Y007433D01*
X000604Y007713D02*
X000814Y007713D01*
X000884Y007643D01*
X000884Y007433D01*
X000814Y007893D02*
X000674Y007893D01*
X000604Y007963D01*
X000604Y008173D01*
X001025Y008173D01*
X000884Y008173D02*
X000884Y007963D01*
X000814Y007893D01*
X000884Y008814D02*
X001025Y008954D01*
X000604Y008954D01*
X000604Y008814D02*
X000604Y009094D01*
X000674Y009274D02*
X000604Y009344D01*
X000604Y009485D01*
X000674Y009555D01*
X000814Y009555D01*
X000884Y009485D01*
X000884Y009415D01*
X000814Y009274D01*
X001025Y009274D01*
X001025Y009555D01*
X001025Y009735D02*
X000814Y009735D01*
X000884Y009875D01*
X000884Y009945D01*
X000814Y010015D01*
X000674Y010015D01*
X000604Y009945D01*
X000604Y009805D01*
X000674Y009735D01*
X000604Y010195D02*
X000604Y010475D01*
X000604Y010335D02*
X001025Y010335D01*
X000884Y010195D01*
X001025Y010015D02*
X001025Y009735D01*
X001025Y010656D02*
X000604Y010656D01*
X000744Y010656D02*
X000744Y010866D01*
X000814Y010936D01*
X000955Y010936D01*
X001025Y010866D01*
X001025Y010656D01*
X002670Y009722D02*
X002990Y009722D01*
X002830Y009562D01*
X002830Y009775D01*
X002723Y009407D02*
X002670Y009353D01*
X002670Y009247D01*
X002723Y009193D01*
X002937Y009407D01*
X002723Y009407D01*
X002723Y009193D02*
X002937Y009193D01*
X002990Y009247D01*
X002990Y009353D01*
X002937Y009407D01*
X002937Y009038D02*
X002723Y009038D01*
X002670Y008985D01*
X002670Y008878D01*
X002723Y008825D01*
X002937Y009038D01*
X002990Y008985D01*
X002990Y008878D01*
X002937Y008825D01*
X002723Y008825D01*
X002830Y008670D02*
X002830Y008457D01*
X002990Y008617D01*
X002670Y008617D01*
X002670Y008302D02*
X002990Y008302D01*
X002990Y008088D02*
X002670Y008088D01*
X002670Y007934D02*
X002670Y007720D01*
X002670Y007827D02*
X002990Y007827D01*
X002884Y007720D01*
X002990Y008088D02*
X002670Y008302D01*
X003970Y008280D02*
X003970Y008494D01*
X003970Y008387D02*
X004290Y008387D01*
X004184Y008280D01*
X004237Y008648D02*
X004023Y008648D01*
X004237Y008862D01*
X004023Y008862D01*
X003970Y008808D01*
X003970Y008702D01*
X004023Y008648D01*
X004237Y008648D02*
X004290Y008702D01*
X004290Y008808D01*
X004237Y008862D01*
X004290Y009017D02*
X003970Y009017D01*
X004077Y009017D02*
X003970Y009177D01*
X004077Y009017D02*
X004184Y009177D01*
X005820Y009110D02*
X006034Y009324D01*
X006087Y009324D01*
X006140Y009270D01*
X006140Y009163D01*
X006087Y009110D01*
X005820Y009110D02*
X005820Y009324D01*
X005820Y009478D02*
X006140Y009478D01*
X005820Y009692D01*
X006140Y009692D01*
X006140Y009847D02*
X006140Y010060D01*
X006087Y010060D01*
X005873Y009847D01*
X005820Y009847D01*
X005873Y010215D02*
X006087Y010429D01*
X005873Y010429D01*
X005820Y010375D01*
X005820Y010268D01*
X005873Y010215D01*
X006087Y010215D01*
X006140Y010268D01*
X006140Y010375D01*
X006087Y010429D01*
X006087Y010583D02*
X006140Y010637D01*
X006140Y010744D01*
X006087Y010797D01*
X005873Y010583D01*
X005820Y010637D01*
X005820Y010744D01*
X005873Y010797D01*
X006087Y010797D01*
X006087Y010952D02*
X006140Y011005D01*
X006140Y011112D01*
X006087Y011165D01*
X005873Y010952D01*
X005820Y011005D01*
X005820Y011112D01*
X005873Y011165D01*
X006087Y011165D01*
X006087Y010952D02*
X005873Y010952D01*
X005873Y010583D02*
X006087Y010583D01*
X006910Y009153D02*
X007013Y008998D01*
X007117Y009153D01*
X007220Y008998D02*
X006910Y008998D01*
X006962Y008846D02*
X006910Y008794D01*
X006910Y008691D01*
X006962Y008639D01*
X007169Y008846D01*
X006962Y008846D01*
X007169Y008846D02*
X007220Y008794D01*
X007220Y008691D01*
X007169Y008639D01*
X006962Y008639D01*
X006910Y008487D02*
X006910Y008280D01*
X006910Y008383D02*
X007220Y008383D01*
X007117Y008280D01*
X008060Y008332D02*
X008112Y008280D01*
X008060Y008332D02*
X008060Y008435D01*
X008112Y008487D01*
X008163Y008487D01*
X008215Y008435D01*
X008215Y008383D01*
X008215Y008435D02*
X008267Y008487D01*
X008319Y008487D01*
X008370Y008435D01*
X008370Y008332D01*
X008319Y008280D01*
X008319Y008639D02*
X008370Y008691D01*
X008370Y008794D01*
X008319Y008846D01*
X008267Y008846D01*
X008215Y008794D01*
X008163Y008846D01*
X008112Y008846D01*
X008060Y008794D01*
X008060Y008691D01*
X008112Y008639D01*
X008215Y008743D02*
X008215Y008794D01*
X008163Y008998D02*
X008267Y009153D01*
X008370Y008998D02*
X008060Y008998D01*
X008163Y008998D02*
X008060Y009153D01*
X009260Y009153D02*
X009363Y008998D01*
X009467Y009153D01*
X009570Y008998D02*
X009260Y008998D01*
X009312Y008846D02*
X009260Y008794D01*
X009260Y008691D01*
X009312Y008639D01*
X009519Y008846D01*
X009312Y008846D01*
X009312Y008639D02*
X009519Y008639D01*
X009570Y008691D01*
X009570Y008794D01*
X009519Y008846D01*
X009260Y008487D02*
X009260Y008280D01*
X009260Y008383D02*
X009570Y008383D01*
X009467Y008280D01*
X009360Y004240D02*
X009253Y004240D01*
X009200Y004187D01*
X009200Y004134D01*
X009253Y004080D01*
X009200Y004027D01*
X009200Y003973D01*
X009253Y003920D01*
X009360Y003920D01*
X009413Y003973D01*
X009307Y004080D02*
X009253Y004080D01*
X009413Y004187D02*
X009360Y004240D01*
X009045Y004187D02*
X008992Y004240D01*
X008885Y004240D01*
X008831Y004187D01*
X008831Y004134D01*
X008885Y004080D01*
X008831Y004027D01*
X008831Y003973D01*
X008885Y003920D01*
X008992Y003920D01*
X009045Y003973D01*
X008938Y004080D02*
X008885Y004080D01*
X008677Y004134D02*
X008677Y003973D01*
X008623Y003920D01*
X008463Y003920D01*
X008463Y004134D01*
X008308Y004080D02*
X008202Y004080D01*
X008308Y003920D02*
X008308Y004240D01*
X008095Y004240D01*
X008243Y003190D02*
X008190Y003137D01*
X008190Y003084D01*
X008243Y003030D01*
X008190Y002977D01*
X008190Y002923D01*
X008243Y002870D01*
X008350Y002870D01*
X008403Y002923D01*
X008297Y003030D02*
X008243Y003030D01*
X008243Y003190D02*
X008350Y003190D01*
X008403Y003137D01*
X008558Y003137D02*
X008558Y002923D01*
X008612Y002870D01*
X008718Y002870D01*
X008772Y002923D01*
X008558Y003137D01*
X008612Y003190D01*
X008718Y003190D01*
X008772Y003137D01*
X008772Y002923D01*
X008926Y002870D02*
X009140Y002870D01*
X009033Y002870D02*
X009033Y003190D01*
X009140Y003084D01*
X006087Y006510D02*
X006140Y006563D01*
X006140Y006670D01*
X006087Y006724D01*
X006034Y006724D01*
X005820Y006510D01*
X005820Y006724D01*
X005820Y006878D02*
X006140Y006878D01*
X005820Y007092D01*
X006140Y007092D01*
X006140Y007247D02*
X006140Y007460D01*
X006087Y007460D01*
X005873Y007247D01*
X005820Y007247D01*
X005873Y007615D02*
X006087Y007829D01*
X005873Y007829D01*
X005820Y007775D01*
X005820Y007668D01*
X005873Y007615D01*
X006087Y007615D01*
X006140Y007668D01*
X006140Y007775D01*
X006087Y007829D01*
X006087Y007983D02*
X006140Y008037D01*
X006140Y008144D01*
X006087Y008197D01*
X005873Y007983D01*
X005820Y008037D01*
X005820Y008144D01*
X005873Y008197D01*
X006087Y008197D01*
X006087Y008352D02*
X006140Y008405D01*
X006140Y008512D01*
X006087Y008565D01*
X005873Y008352D01*
X005820Y008405D01*
X005820Y008512D01*
X005873Y008565D01*
X006087Y008565D01*
X006087Y008352D02*
X005873Y008352D01*
X005873Y007983D02*
X006087Y007983D01*
X005640Y005402D02*
X005640Y005122D01*
X005430Y005122D01*
X005500Y005262D01*
X005500Y005332D01*
X005430Y005402D01*
X005290Y005402D01*
X005220Y005332D01*
X005220Y005192D01*
X005290Y005122D01*
X005290Y004942D02*
X005220Y004872D01*
X005220Y004732D01*
X005290Y004662D01*
X005430Y004662D02*
X005500Y004802D01*
X005500Y004872D01*
X005430Y004942D01*
X005290Y004942D01*
X005430Y004662D02*
X005640Y004662D01*
X005640Y004942D01*
X005640Y004481D02*
X005640Y004201D01*
X005430Y004201D01*
X005500Y004341D01*
X005500Y004411D01*
X005430Y004481D01*
X005290Y004481D01*
X005220Y004411D01*
X005220Y004271D01*
X005290Y004201D01*
X005290Y004021D02*
X005220Y003951D01*
X005220Y003811D01*
X005290Y003741D01*
X005570Y003741D01*
X005640Y003811D01*
X005640Y003951D01*
X005570Y004021D01*
X005640Y003561D02*
X005640Y003280D01*
X005640Y003421D02*
X005220Y003421D01*
X005220Y003100D02*
X005220Y002820D01*
X005640Y002820D01*
X002970Y003583D02*
X002660Y003583D01*
X002660Y003480D02*
X002660Y003687D01*
X002660Y003839D02*
X002970Y003839D01*
X002815Y003891D02*
X002660Y004046D01*
X002763Y003839D02*
X002970Y004046D01*
X002970Y003583D02*
X002867Y003480D01*
M02*
