G75*
%MOIN*%
%OFA0B0*%
%FSLAX24Y24*%
%IPPOS*%
%LPD*%
%AMOC8*
5,1,8,0,0,1.08239X$1,22.5*
%
%ADD10OC8,0.0630*%
%ADD11C,0.0630*%
%ADD12C,0.0500*%
%ADD13OC8,0.0480*%
%ADD14C,0.1227*%
%ADD15C,0.0660*%
%ADD16C,0.0591*%
%ADD17C,0.0160*%
D10*
X009480Y004880D03*
D11*
X008480Y004880D03*
D12*
X007180Y004680D03*
X007180Y005680D03*
X007180Y003680D03*
X007180Y002680D03*
X004180Y002680D03*
X004180Y003680D03*
X004180Y004680D03*
X004180Y005680D03*
D13*
X004580Y006680D03*
X005780Y006680D03*
X003380Y006680D03*
X002580Y004930D03*
X002080Y004180D03*
X003080Y004180D03*
X003380Y010680D03*
X004580Y010680D03*
X005780Y010680D03*
X008180Y010680D03*
X009380Y010680D03*
X009380Y006680D03*
X008180Y006680D03*
X007980Y003080D03*
X009980Y003080D03*
D14*
X007750Y012552D03*
X005708Y012582D03*
X003750Y012552D03*
D15*
X002180Y010680D03*
X002180Y006680D03*
X006980Y006680D03*
X006980Y010680D03*
D16*
X005780Y001480D03*
X004780Y001480D03*
D17*
X001419Y002026D02*
X001419Y000360D01*
X010475Y000360D01*
X010570Y000367D01*
X010751Y000426D01*
X010905Y000538D01*
X011016Y000692D01*
X011075Y000872D01*
X011083Y000967D01*
X011083Y011024D01*
X010338Y011024D01*
X010046Y011118D01*
X010046Y011118D01*
X009798Y011298D01*
X009798Y011298D01*
X009798Y011298D01*
X009618Y011546D01*
X009618Y011546D01*
X009524Y011838D01*
X009524Y013386D01*
X000967Y013386D01*
X000872Y013378D01*
X000692Y013320D01*
X000538Y013208D01*
X000426Y013054D01*
X000367Y012873D01*
X000360Y012778D01*
X000360Y002919D01*
X000605Y002919D01*
X000896Y002824D01*
X000896Y002824D01*
X001144Y002644D01*
X001144Y002644D01*
X001324Y002396D01*
X001419Y002105D01*
X001419Y002026D01*
X001419Y002082D02*
X005520Y002082D01*
X005520Y001924D02*
X004951Y001924D01*
X004875Y001955D02*
X004685Y001955D01*
X004511Y001883D01*
X004377Y001749D01*
X004305Y001575D01*
X004305Y001385D01*
X004377Y001211D01*
X004511Y001077D01*
X004685Y001005D01*
X004875Y001005D01*
X005049Y001077D01*
X005183Y001211D01*
X005255Y001385D01*
X005255Y001575D01*
X005183Y001749D01*
X005049Y001883D01*
X004875Y001955D01*
X004609Y001924D02*
X001419Y001924D01*
X001419Y001765D02*
X004393Y001765D01*
X004318Y001607D02*
X001419Y001607D01*
X001419Y001448D02*
X004305Y001448D01*
X004344Y001290D02*
X001419Y001290D01*
X001419Y001131D02*
X004457Y001131D01*
X005103Y001131D02*
X005457Y001131D01*
X005511Y001077D02*
X005685Y001005D01*
X005875Y001005D01*
X006049Y001077D01*
X006183Y001211D01*
X006255Y001385D01*
X006255Y001575D01*
X006183Y001749D01*
X006049Y001883D01*
X006040Y001887D01*
X006040Y006346D01*
X006200Y006506D01*
X006200Y006854D01*
X005954Y007100D01*
X005606Y007100D01*
X005360Y006854D01*
X005360Y006506D01*
X005520Y006346D01*
X005520Y001887D01*
X005511Y001883D01*
X005377Y001749D01*
X005305Y001575D01*
X005305Y001385D01*
X005377Y001211D01*
X005511Y001077D01*
X005344Y001290D02*
X005216Y001290D01*
X005255Y001448D02*
X005305Y001448D01*
X005318Y001607D02*
X005242Y001607D01*
X005167Y001765D02*
X005393Y001765D01*
X005780Y001480D02*
X005780Y006680D01*
X006058Y006996D02*
X006574Y006996D01*
X006548Y006969D02*
X006470Y006781D01*
X006470Y006579D01*
X006548Y006391D01*
X006691Y006248D01*
X006879Y006170D01*
X007081Y006170D01*
X007269Y006248D01*
X007412Y006391D01*
X007490Y006579D01*
X007490Y006781D01*
X007412Y006969D01*
X007269Y007112D01*
X007081Y007190D01*
X006879Y007190D01*
X006691Y007112D01*
X006548Y006969D01*
X006493Y006837D02*
X006200Y006837D01*
X006200Y006679D02*
X006470Y006679D01*
X006494Y006520D02*
X006200Y006520D01*
X006055Y006362D02*
X006577Y006362D01*
X006799Y006203D02*
X006040Y006203D01*
X006040Y006045D02*
X006936Y006045D01*
X006815Y005924D01*
X006750Y005766D01*
X006750Y005594D01*
X006815Y005436D01*
X006936Y005315D01*
X007094Y005250D01*
X007266Y005250D01*
X007424Y005315D01*
X007545Y005436D01*
X007610Y005594D01*
X007610Y005766D01*
X007545Y005924D01*
X007424Y006045D01*
X007266Y006110D01*
X007094Y006110D01*
X006936Y006045D01*
X006800Y005886D02*
X006040Y005886D01*
X006040Y005728D02*
X006750Y005728D01*
X006761Y005569D02*
X006040Y005569D01*
X006040Y005411D02*
X006841Y005411D01*
X007090Y005252D02*
X006040Y005252D01*
X006040Y005094D02*
X007055Y005094D01*
X007094Y005110D02*
X006936Y005045D01*
X006815Y004924D01*
X006750Y004766D01*
X006750Y004594D01*
X006815Y004436D01*
X006936Y004315D01*
X007094Y004250D01*
X007266Y004250D01*
X007424Y004315D01*
X007545Y004436D01*
X007610Y004594D01*
X007610Y004766D01*
X007545Y004924D01*
X007424Y005045D01*
X007266Y005110D01*
X007094Y005110D01*
X007305Y005094D02*
X008033Y005094D01*
X008060Y005160D02*
X007985Y004978D01*
X007985Y004782D01*
X008060Y004600D01*
X008200Y004460D01*
X008382Y004385D01*
X008578Y004385D01*
X008760Y004460D01*
X008900Y004600D01*
X008975Y004782D01*
X008975Y004978D01*
X008900Y005160D01*
X008760Y005300D01*
X008578Y005375D01*
X008382Y005375D01*
X008200Y005300D01*
X008060Y005160D01*
X008152Y005252D02*
X007270Y005252D01*
X007519Y005411D02*
X011083Y005411D01*
X011083Y005569D02*
X007599Y005569D01*
X007610Y005728D02*
X011083Y005728D01*
X011083Y005886D02*
X007560Y005886D01*
X007424Y006045D02*
X011083Y006045D01*
X011083Y006203D02*
X007161Y006203D01*
X007383Y006362D02*
X007905Y006362D01*
X008006Y006260D02*
X007760Y006506D01*
X007760Y006854D01*
X008006Y007100D01*
X008354Y007100D01*
X008600Y006854D01*
X008600Y006506D01*
X008354Y006260D01*
X008006Y006260D01*
X007760Y006520D02*
X007466Y006520D01*
X007490Y006679D02*
X007760Y006679D01*
X007760Y006837D02*
X007467Y006837D01*
X007386Y006996D02*
X007902Y006996D01*
X008458Y006996D02*
X009102Y006996D01*
X009206Y007100D02*
X008960Y006854D01*
X008960Y006506D01*
X009206Y006260D01*
X009554Y006260D01*
X009800Y006506D01*
X009800Y006854D01*
X009554Y007100D01*
X009206Y007100D01*
X008960Y006837D02*
X008600Y006837D01*
X008600Y006679D02*
X008960Y006679D01*
X008960Y006520D02*
X008600Y006520D01*
X008455Y006362D02*
X009105Y006362D01*
X009655Y006362D02*
X011083Y006362D01*
X011083Y006520D02*
X009800Y006520D01*
X009800Y006679D02*
X011083Y006679D01*
X011083Y006837D02*
X009800Y006837D01*
X009658Y006996D02*
X011083Y006996D01*
X011083Y007154D02*
X007168Y007154D01*
X006792Y007154D02*
X002368Y007154D01*
X002281Y007190D02*
X002469Y007112D01*
X002612Y006969D01*
X002690Y006781D01*
X002690Y006579D01*
X002612Y006391D01*
X002469Y006248D01*
X002281Y006170D01*
X002079Y006170D01*
X001891Y006248D01*
X001748Y006391D01*
X001670Y006579D01*
X001670Y006781D01*
X001748Y006969D01*
X001891Y007112D01*
X002079Y007190D01*
X002281Y007190D01*
X001992Y007154D02*
X000360Y007154D01*
X000360Y006996D02*
X001774Y006996D01*
X001693Y006837D02*
X000360Y006837D01*
X000360Y006679D02*
X001670Y006679D01*
X001694Y006520D02*
X000360Y006520D01*
X000360Y006362D02*
X001777Y006362D01*
X001999Y006203D02*
X000360Y006203D01*
X000360Y006045D02*
X003950Y006045D01*
X003955Y006048D02*
X003900Y006008D01*
X003852Y005960D01*
X003812Y005905D01*
X003782Y005845D01*
X003761Y005781D01*
X003750Y005714D01*
X003750Y005680D01*
X004180Y005680D01*
X004610Y005680D01*
X004610Y005714D01*
X004599Y005781D01*
X004578Y005845D01*
X004548Y005905D01*
X004508Y005960D01*
X004460Y006008D01*
X004405Y006048D01*
X004345Y006078D01*
X004281Y006099D01*
X004214Y006110D01*
X004180Y006110D01*
X004180Y005680D01*
X004180Y005680D01*
X004180Y005680D01*
X004610Y005680D01*
X004610Y005646D01*
X004599Y005579D01*
X004578Y005515D01*
X004548Y005455D01*
X004508Y005400D01*
X004460Y005352D01*
X004405Y005312D01*
X004345Y005282D01*
X004281Y005261D01*
X004214Y005250D01*
X004180Y005250D01*
X004180Y005680D01*
X004180Y005680D01*
X004180Y005680D01*
X004180Y006110D01*
X004146Y006110D01*
X004079Y006099D01*
X004015Y006078D01*
X003955Y006048D01*
X003802Y005886D02*
X000360Y005886D01*
X000360Y005728D02*
X003752Y005728D01*
X003750Y005680D02*
X003750Y005646D01*
X003761Y005579D01*
X003782Y005515D01*
X003812Y005455D01*
X003852Y005400D01*
X003900Y005352D01*
X003955Y005312D01*
X004015Y005282D01*
X004079Y005261D01*
X004146Y005250D01*
X004180Y005250D01*
X004180Y005680D01*
X003750Y005680D01*
X003764Y005569D02*
X000360Y005569D01*
X000360Y005411D02*
X003844Y005411D01*
X004133Y005252D02*
X002852Y005252D01*
X002754Y005350D02*
X002406Y005350D01*
X002160Y005104D01*
X002160Y004756D01*
X002406Y004510D01*
X002754Y004510D01*
X003000Y004756D01*
X003000Y005104D01*
X002754Y005350D01*
X003000Y005094D02*
X004055Y005094D01*
X004094Y005110D02*
X003936Y005045D01*
X003815Y004924D01*
X003750Y004766D01*
X003750Y004594D01*
X003815Y004436D01*
X003936Y004315D01*
X004094Y004250D01*
X004266Y004250D01*
X004424Y004315D01*
X004545Y004436D01*
X004610Y004594D01*
X004610Y004766D01*
X004545Y004924D01*
X004424Y005045D01*
X004266Y005110D01*
X004094Y005110D01*
X004180Y005252D02*
X004180Y005252D01*
X004227Y005252D02*
X005520Y005252D01*
X005520Y005094D02*
X004305Y005094D01*
X004533Y004935D02*
X005520Y004935D01*
X005520Y004777D02*
X004605Y004777D01*
X004610Y004618D02*
X005520Y004618D01*
X005520Y004460D02*
X004554Y004460D01*
X004389Y004301D02*
X005520Y004301D01*
X005520Y004143D02*
X003500Y004143D01*
X003500Y004006D02*
X003254Y003760D01*
X002906Y003760D01*
X002660Y004006D01*
X002660Y004354D01*
X002906Y004600D01*
X003254Y004600D01*
X003500Y004354D01*
X003500Y004006D01*
X003478Y003984D02*
X003876Y003984D01*
X003936Y004045D02*
X003815Y003924D01*
X003750Y003766D01*
X003750Y003594D01*
X003815Y003436D01*
X003936Y003315D01*
X004094Y003250D01*
X004266Y003250D01*
X004424Y003315D01*
X004545Y003436D01*
X004610Y003594D01*
X004610Y003766D01*
X004545Y003924D01*
X004424Y004045D01*
X004266Y004110D01*
X004094Y004110D01*
X003936Y004045D01*
X003775Y003826D02*
X003319Y003826D01*
X003750Y003667D02*
X000360Y003667D01*
X000360Y003509D02*
X003786Y003509D01*
X003902Y003350D02*
X000360Y003350D01*
X000360Y003192D02*
X005520Y003192D01*
X005520Y003350D02*
X004458Y003350D01*
X004574Y003509D02*
X005520Y003509D01*
X005520Y003667D02*
X004610Y003667D01*
X004585Y003826D02*
X005520Y003826D01*
X005520Y003984D02*
X004484Y003984D01*
X003971Y004301D02*
X003500Y004301D01*
X003394Y004460D02*
X003806Y004460D01*
X003750Y004618D02*
X002862Y004618D01*
X002766Y004460D02*
X002394Y004460D01*
X002500Y004354D02*
X002254Y004600D01*
X002080Y004600D01*
X002080Y004180D01*
X002500Y004180D01*
X002500Y004354D01*
X002500Y004301D02*
X002660Y004301D01*
X002660Y004143D02*
X002500Y004143D01*
X002500Y004180D02*
X002080Y004180D01*
X002080Y004180D01*
X002080Y004180D01*
X002080Y003760D01*
X002254Y003760D01*
X002500Y004006D01*
X002500Y004180D01*
X002478Y003984D02*
X002682Y003984D01*
X002841Y003826D02*
X002319Y003826D01*
X002080Y003826D02*
X002080Y003826D01*
X002080Y003760D02*
X002080Y004180D01*
X002080Y004180D01*
X002080Y004180D01*
X001660Y004180D01*
X001660Y004354D01*
X001906Y004600D01*
X002080Y004600D01*
X002080Y004180D01*
X001660Y004180D01*
X001660Y004006D01*
X001906Y003760D01*
X002080Y003760D01*
X002080Y003984D02*
X002080Y003984D01*
X002080Y004143D02*
X002080Y004143D01*
X002080Y004301D02*
X002080Y004301D01*
X002080Y004460D02*
X002080Y004460D01*
X002298Y004618D02*
X000360Y004618D01*
X000360Y004460D02*
X001766Y004460D01*
X001660Y004301D02*
X000360Y004301D01*
X000360Y004143D02*
X001660Y004143D01*
X001682Y003984D02*
X000360Y003984D01*
X000360Y003826D02*
X001841Y003826D01*
X002160Y004777D02*
X000360Y004777D01*
X000360Y004935D02*
X002160Y004935D01*
X002160Y005094D02*
X000360Y005094D01*
X000360Y005252D02*
X002308Y005252D01*
X003000Y004935D02*
X003827Y004935D01*
X003755Y004777D02*
X003000Y004777D01*
X002361Y006203D02*
X005520Y006203D01*
X005520Y006045D02*
X004410Y006045D01*
X004406Y006260D02*
X004754Y006260D01*
X005000Y006506D01*
X005000Y006854D01*
X004754Y007100D01*
X004406Y007100D01*
X004160Y006854D01*
X004160Y006506D01*
X004406Y006260D01*
X004305Y006362D02*
X003655Y006362D01*
X003554Y006260D02*
X003800Y006506D01*
X003800Y006854D01*
X003554Y007100D01*
X003206Y007100D01*
X002960Y006854D01*
X002960Y006506D01*
X003206Y006260D01*
X003554Y006260D01*
X003800Y006520D02*
X004160Y006520D01*
X004160Y006679D02*
X003800Y006679D01*
X003800Y006837D02*
X004160Y006837D01*
X004302Y006996D02*
X003658Y006996D01*
X003102Y006996D02*
X002586Y006996D01*
X002667Y006837D02*
X002960Y006837D01*
X002960Y006679D02*
X002690Y006679D01*
X002666Y006520D02*
X002960Y006520D01*
X003105Y006362D02*
X002583Y006362D01*
X004180Y006045D02*
X004180Y006045D01*
X004180Y005886D02*
X004180Y005886D01*
X004180Y005728D02*
X004180Y005728D01*
X004180Y005569D02*
X004180Y005569D01*
X004180Y005411D02*
X004180Y005411D01*
X004516Y005411D02*
X005520Y005411D01*
X005520Y005569D02*
X004596Y005569D01*
X004608Y005728D02*
X005520Y005728D01*
X005520Y005886D02*
X004558Y005886D01*
X004855Y006362D02*
X005505Y006362D01*
X005360Y006520D02*
X005000Y006520D01*
X005000Y006679D02*
X005360Y006679D01*
X005360Y006837D02*
X005000Y006837D01*
X004858Y006996D02*
X005502Y006996D01*
X006040Y004935D02*
X006827Y004935D01*
X006755Y004777D02*
X006040Y004777D01*
X006040Y004618D02*
X006750Y004618D01*
X006806Y004460D02*
X006040Y004460D01*
X006040Y004301D02*
X006971Y004301D01*
X007094Y004110D02*
X006936Y004045D01*
X006815Y003924D01*
X006750Y003766D01*
X006750Y003594D01*
X006815Y003436D01*
X006936Y003315D01*
X007094Y003250D01*
X007266Y003250D01*
X007424Y003315D01*
X007545Y003436D01*
X007610Y003594D01*
X007610Y003766D01*
X007545Y003924D01*
X007424Y004045D01*
X007266Y004110D01*
X007094Y004110D01*
X006876Y003984D02*
X006040Y003984D01*
X006040Y003826D02*
X006775Y003826D01*
X006750Y003667D02*
X006040Y003667D01*
X006040Y003509D02*
X006786Y003509D01*
X006902Y003350D02*
X006040Y003350D01*
X006040Y003192D02*
X007560Y003192D01*
X007560Y003254D02*
X007560Y002906D01*
X007806Y002660D01*
X008154Y002660D01*
X008400Y002906D01*
X008400Y003254D01*
X008154Y003500D01*
X007806Y003500D01*
X007560Y003254D01*
X007656Y003350D02*
X007458Y003350D01*
X007574Y003509D02*
X011083Y003509D01*
X011083Y003667D02*
X007610Y003667D01*
X007585Y003826D02*
X011083Y003826D01*
X011083Y003984D02*
X007484Y003984D01*
X007389Y004301D02*
X011083Y004301D01*
X011083Y004143D02*
X006040Y004143D01*
X006040Y003033D02*
X006925Y003033D01*
X006936Y003045D02*
X006815Y002924D01*
X006750Y002766D01*
X006750Y002594D01*
X006815Y002436D01*
X006936Y002315D01*
X007094Y002250D01*
X007266Y002250D01*
X007424Y002315D01*
X007545Y002436D01*
X007610Y002594D01*
X007610Y002766D01*
X007545Y002924D01*
X007424Y003045D01*
X007266Y003110D01*
X007094Y003110D01*
X006936Y003045D01*
X006795Y002875D02*
X006040Y002875D01*
X006040Y002716D02*
X006750Y002716D01*
X006765Y002558D02*
X006040Y002558D01*
X006040Y002399D02*
X006853Y002399D01*
X007435Y003033D02*
X007560Y003033D01*
X007565Y002875D02*
X007592Y002875D01*
X007610Y002716D02*
X007750Y002716D01*
X007595Y002558D02*
X011083Y002558D01*
X011083Y002716D02*
X010210Y002716D01*
X010154Y002660D02*
X010400Y002906D01*
X010400Y003080D01*
X010400Y003254D01*
X010154Y003500D01*
X009980Y003500D01*
X009980Y003080D01*
X010400Y003080D01*
X009980Y003080D01*
X009980Y003080D01*
X009980Y003080D01*
X009980Y002660D01*
X010154Y002660D01*
X009980Y002660D02*
X009980Y003080D01*
X009980Y003080D01*
X009980Y003080D01*
X009560Y003080D01*
X009560Y003254D01*
X009806Y003500D01*
X009980Y003500D01*
X009980Y003080D01*
X009560Y003080D01*
X009560Y002906D01*
X009806Y002660D01*
X009980Y002660D01*
X009980Y002716D02*
X009980Y002716D01*
X009980Y002875D02*
X009980Y002875D01*
X009980Y003033D02*
X009980Y003033D01*
X009980Y003192D02*
X009980Y003192D01*
X009980Y003350D02*
X009980Y003350D01*
X010304Y003350D02*
X011083Y003350D01*
X011083Y003192D02*
X010400Y003192D01*
X010400Y003033D02*
X011083Y003033D01*
X011083Y002875D02*
X010368Y002875D01*
X009750Y002716D02*
X008210Y002716D01*
X008368Y002875D02*
X009592Y002875D01*
X009560Y003033D02*
X008400Y003033D01*
X008400Y003192D02*
X009560Y003192D01*
X009656Y003350D02*
X008304Y003350D01*
X008202Y004460D02*
X007554Y004460D01*
X007610Y004618D02*
X008053Y004618D01*
X007987Y004777D02*
X007605Y004777D01*
X007533Y004935D02*
X007985Y004935D01*
X008808Y005252D02*
X009152Y005252D01*
X009275Y005375D02*
X008985Y005085D01*
X008985Y004880D01*
X009480Y004880D01*
X009975Y004880D01*
X009975Y005085D01*
X009685Y005375D01*
X009480Y005375D01*
X009480Y004880D01*
X009480Y004880D01*
X009480Y004880D01*
X009975Y004880D01*
X009975Y004675D01*
X009685Y004385D01*
X009480Y004385D01*
X009480Y004880D01*
X009480Y004880D01*
X009480Y004880D01*
X009480Y005375D01*
X009275Y005375D01*
X009480Y005252D02*
X009480Y005252D01*
X009480Y005094D02*
X009480Y005094D01*
X009480Y004935D02*
X009480Y004935D01*
X009480Y004880D02*
X008985Y004880D01*
X008985Y004675D01*
X009275Y004385D01*
X009480Y004385D01*
X009480Y004880D01*
X009480Y004777D02*
X009480Y004777D01*
X009480Y004618D02*
X009480Y004618D01*
X009480Y004460D02*
X009480Y004460D01*
X009760Y004460D02*
X011083Y004460D01*
X011083Y004618D02*
X009918Y004618D01*
X009975Y004777D02*
X011083Y004777D01*
X011083Y004935D02*
X009975Y004935D01*
X009967Y005094D02*
X011083Y005094D01*
X011083Y005252D02*
X009808Y005252D01*
X009200Y004460D02*
X008758Y004460D01*
X008907Y004618D02*
X009042Y004618D01*
X008985Y004777D02*
X008973Y004777D01*
X008975Y004935D02*
X008985Y004935D01*
X008993Y005094D02*
X008927Y005094D01*
X007507Y002399D02*
X011083Y002399D01*
X011083Y002241D02*
X006040Y002241D01*
X006040Y002082D02*
X011083Y002082D01*
X011083Y001924D02*
X009747Y001924D01*
X009846Y001883D02*
X009577Y001994D01*
X009287Y001994D01*
X009018Y001883D01*
X008812Y001677D01*
X008701Y001408D01*
X008701Y001117D01*
X008812Y000848D01*
X009018Y000643D01*
X009287Y000531D01*
X009577Y000531D01*
X009846Y000643D01*
X010052Y000848D01*
X010163Y001117D01*
X010163Y001408D01*
X010052Y001677D01*
X009846Y001883D01*
X009964Y001765D02*
X011083Y001765D01*
X011083Y001607D02*
X010081Y001607D01*
X010147Y001448D02*
X011083Y001448D01*
X011083Y001290D02*
X010163Y001290D01*
X010163Y001131D02*
X011083Y001131D01*
X011083Y000973D02*
X010103Y000973D01*
X010017Y000814D02*
X011056Y000814D01*
X010990Y000656D02*
X009859Y000656D01*
X009005Y000656D02*
X001419Y000656D01*
X001419Y000814D02*
X008847Y000814D01*
X008761Y000973D02*
X001419Y000973D01*
X001419Y000497D02*
X010848Y000497D01*
X009117Y001924D02*
X006040Y001924D01*
X006167Y001765D02*
X008900Y001765D01*
X008783Y001607D02*
X006242Y001607D01*
X006255Y001448D02*
X008717Y001448D01*
X008701Y001290D02*
X006216Y001290D01*
X006103Y001131D02*
X008701Y001131D01*
X005520Y002241D02*
X001375Y002241D01*
X001322Y002399D02*
X003853Y002399D01*
X003815Y002436D02*
X003936Y002315D01*
X004094Y002250D01*
X004266Y002250D01*
X004424Y002315D01*
X004545Y002436D01*
X004610Y002594D01*
X004610Y002766D01*
X004545Y002924D01*
X004424Y003045D01*
X004266Y003110D01*
X004094Y003110D01*
X003936Y003045D01*
X003815Y002924D01*
X003750Y002766D01*
X003750Y002594D01*
X003815Y002436D01*
X003765Y002558D02*
X001207Y002558D01*
X001045Y002716D02*
X003750Y002716D01*
X003795Y002875D02*
X000742Y002875D01*
X000360Y003033D02*
X003925Y003033D01*
X004435Y003033D02*
X005520Y003033D01*
X005520Y002875D02*
X004565Y002875D01*
X004610Y002716D02*
X005520Y002716D01*
X005520Y002558D02*
X004595Y002558D01*
X004507Y002399D02*
X005520Y002399D01*
X000360Y007313D02*
X011083Y007313D01*
X011083Y007471D02*
X000360Y007471D01*
X000360Y007630D02*
X011083Y007630D01*
X011083Y007788D02*
X000360Y007788D01*
X000360Y007947D02*
X011083Y007947D01*
X011083Y008105D02*
X000360Y008105D01*
X000360Y008264D02*
X011083Y008264D01*
X011083Y008422D02*
X000360Y008422D01*
X000360Y008581D02*
X011083Y008581D01*
X011083Y008739D02*
X000360Y008739D01*
X000360Y008898D02*
X011083Y008898D01*
X011083Y009056D02*
X000360Y009056D01*
X000360Y009215D02*
X011083Y009215D01*
X011083Y009373D02*
X000360Y009373D01*
X000360Y009532D02*
X011083Y009532D01*
X011083Y009690D02*
X000360Y009690D01*
X000360Y009849D02*
X011083Y009849D01*
X011083Y010007D02*
X000360Y010007D01*
X000360Y010166D02*
X011083Y010166D01*
X011083Y010324D02*
X009618Y010324D01*
X009554Y010260D02*
X009800Y010506D01*
X009800Y010854D01*
X009554Y011100D01*
X009206Y011100D01*
X008960Y010854D01*
X008960Y010506D01*
X009206Y010260D01*
X009554Y010260D01*
X009776Y010483D02*
X011083Y010483D01*
X011083Y010641D02*
X009800Y010641D01*
X009800Y010800D02*
X011083Y010800D01*
X011083Y010958D02*
X009696Y010958D01*
X009831Y011275D02*
X000360Y011275D01*
X000360Y011117D02*
X001901Y011117D01*
X001891Y011112D02*
X001748Y010969D01*
X001670Y010781D01*
X001670Y010579D01*
X001748Y010391D01*
X001891Y010248D01*
X002079Y010170D01*
X002281Y010170D01*
X002469Y010248D01*
X002612Y010391D01*
X002690Y010579D01*
X002690Y010781D01*
X002612Y010969D01*
X002469Y011112D01*
X002281Y011190D01*
X002079Y011190D01*
X001891Y011112D01*
X001743Y010958D02*
X000360Y010958D01*
X000360Y010800D02*
X001677Y010800D01*
X001670Y010641D02*
X000360Y010641D01*
X000360Y010483D02*
X001710Y010483D01*
X001815Y010324D02*
X000360Y010324D01*
X000360Y011434D02*
X009700Y011434D01*
X009603Y011592D02*
X000360Y011592D01*
X000360Y011751D02*
X009552Y011751D01*
X009524Y011909D02*
X008216Y011909D01*
X008192Y011891D02*
X008274Y011954D01*
X008348Y012027D01*
X008411Y012110D01*
X008463Y012200D01*
X008503Y012296D01*
X008530Y012397D01*
X008540Y012472D01*
X007830Y012472D01*
X007830Y012632D01*
X007670Y012632D01*
X007670Y013341D01*
X007595Y013331D01*
X007495Y013305D01*
X007398Y013265D01*
X007308Y013213D01*
X007226Y013149D01*
X007152Y013076D01*
X007089Y012993D01*
X007037Y012903D01*
X006997Y012807D01*
X006970Y012707D01*
X006960Y012632D01*
X007670Y012632D01*
X007670Y012472D01*
X006960Y012472D01*
X006970Y012397D01*
X006997Y012296D01*
X007037Y012200D01*
X007089Y012110D01*
X007152Y012027D01*
X007226Y011954D01*
X007308Y011891D01*
X007398Y011839D01*
X007495Y011799D01*
X007595Y011772D01*
X007670Y011762D01*
X007670Y012472D01*
X007830Y012472D01*
X007830Y011762D01*
X007905Y011772D01*
X008006Y011799D01*
X008102Y011839D01*
X008192Y011891D01*
X008379Y012068D02*
X009524Y012068D01*
X009524Y012226D02*
X008474Y012226D01*
X008527Y012385D02*
X009524Y012385D01*
X009524Y012543D02*
X007830Y012543D01*
X007830Y012632D02*
X008540Y012632D01*
X008530Y012707D01*
X008503Y012807D01*
X008463Y012903D01*
X008411Y012993D01*
X008348Y013076D01*
X008274Y013149D01*
X008192Y013213D01*
X008102Y013265D01*
X008006Y013305D01*
X007905Y013331D01*
X007830Y013341D01*
X007830Y012632D01*
X007830Y012702D02*
X007670Y012702D01*
X007670Y012860D02*
X007830Y012860D01*
X007830Y013019D02*
X007670Y013019D01*
X007670Y013177D02*
X007830Y013177D01*
X007830Y013336D02*
X007670Y013336D01*
X007626Y013336D02*
X005961Y013336D01*
X005865Y013375D02*
X005550Y013375D01*
X005258Y013254D01*
X005035Y013031D01*
X004914Y012739D01*
X004914Y012424D01*
X005035Y012132D01*
X005258Y011909D01*
X004229Y011909D01*
X004199Y011879D02*
X004423Y012102D01*
X004543Y012394D01*
X004543Y012709D01*
X004423Y013001D01*
X004199Y013224D01*
X003908Y013345D01*
X003592Y013345D01*
X003301Y013224D01*
X003077Y013001D01*
X002957Y012709D01*
X002957Y012394D01*
X003077Y012102D01*
X003301Y011879D01*
X003592Y011758D01*
X003908Y011758D01*
X004199Y011879D01*
X004388Y012068D02*
X005100Y012068D01*
X004996Y012226D02*
X004474Y012226D01*
X004540Y012385D02*
X004930Y012385D01*
X004914Y012543D02*
X004543Y012543D01*
X004543Y012702D02*
X004914Y012702D01*
X004964Y012860D02*
X004481Y012860D01*
X004405Y013019D02*
X005030Y013019D01*
X005181Y013177D02*
X004247Y013177D01*
X003931Y013336D02*
X005455Y013336D01*
X005865Y013375D02*
X006157Y013254D01*
X006380Y013031D01*
X006501Y012739D01*
X006501Y012424D01*
X006380Y012132D01*
X006157Y011909D01*
X007284Y011909D01*
X007122Y012068D02*
X006316Y012068D01*
X006419Y012226D02*
X007026Y012226D01*
X006973Y012385D02*
X006485Y012385D01*
X006501Y012543D02*
X007670Y012543D01*
X007670Y012385D02*
X007830Y012385D01*
X007830Y012226D02*
X007670Y012226D01*
X007670Y012068D02*
X007830Y012068D01*
X007830Y011909D02*
X007670Y011909D01*
X008006Y011100D02*
X007760Y010854D01*
X007760Y010506D01*
X008006Y010260D01*
X008354Y010260D01*
X008600Y010506D01*
X008600Y010854D01*
X008354Y011100D01*
X008006Y011100D01*
X007864Y010958D02*
X007417Y010958D01*
X007412Y010969D02*
X007269Y011112D01*
X007081Y011190D01*
X006879Y011190D01*
X006691Y011112D01*
X006548Y010969D01*
X006470Y010781D01*
X006470Y010579D01*
X006548Y010391D01*
X006691Y010248D01*
X006879Y010170D01*
X007081Y010170D01*
X007269Y010248D01*
X007412Y010391D01*
X007490Y010579D01*
X007490Y010781D01*
X007412Y010969D01*
X007483Y010800D02*
X007760Y010800D01*
X007760Y010641D02*
X007490Y010641D01*
X007450Y010483D02*
X007784Y010483D01*
X007942Y010324D02*
X007345Y010324D01*
X007259Y011117D02*
X010052Y011117D01*
X009142Y010324D02*
X008418Y010324D01*
X008576Y010483D02*
X008984Y010483D01*
X008960Y010641D02*
X008600Y010641D01*
X008600Y010800D02*
X008960Y010800D01*
X009064Y010958D02*
X008496Y010958D01*
X008531Y012702D02*
X009524Y012702D01*
X009524Y012860D02*
X008481Y012860D01*
X008392Y013019D02*
X009524Y013019D01*
X009524Y013177D02*
X008238Y013177D01*
X007874Y013336D02*
X009524Y013336D01*
X007262Y013177D02*
X006234Y013177D01*
X006385Y013019D02*
X007108Y013019D01*
X007019Y012860D02*
X006451Y012860D01*
X006501Y012702D02*
X006970Y012702D01*
X006157Y011909D02*
X005865Y011788D01*
X005550Y011788D01*
X005258Y011909D01*
X005606Y011100D02*
X005360Y010854D01*
X005360Y010506D01*
X005606Y010260D01*
X005954Y010260D01*
X006200Y010506D01*
X006200Y010854D01*
X005954Y011100D01*
X005606Y011100D01*
X005464Y010958D02*
X004896Y010958D01*
X005000Y010854D02*
X004754Y011100D01*
X004406Y011100D01*
X004160Y010854D01*
X004160Y010506D01*
X004406Y010260D01*
X004754Y010260D01*
X005000Y010506D01*
X005000Y010854D01*
X005000Y010800D02*
X005360Y010800D01*
X005360Y010641D02*
X005000Y010641D01*
X004976Y010483D02*
X005384Y010483D01*
X005542Y010324D02*
X004818Y010324D01*
X004342Y010324D02*
X003618Y010324D01*
X003554Y010260D02*
X003800Y010506D01*
X003800Y010854D01*
X003554Y011100D01*
X003206Y011100D01*
X002960Y010854D01*
X002960Y010506D01*
X003206Y010260D01*
X003554Y010260D01*
X003776Y010483D02*
X004184Y010483D01*
X004160Y010641D02*
X003800Y010641D01*
X003800Y010800D02*
X004160Y010800D01*
X004264Y010958D02*
X003696Y010958D01*
X003064Y010958D02*
X002617Y010958D01*
X002683Y010800D02*
X002960Y010800D01*
X002960Y010641D02*
X002690Y010641D01*
X002650Y010483D02*
X002984Y010483D01*
X003142Y010324D02*
X002545Y010324D01*
X002459Y011117D02*
X006701Y011117D01*
X006543Y010958D02*
X006096Y010958D01*
X006200Y010800D02*
X006477Y010800D01*
X006470Y010641D02*
X006200Y010641D01*
X006176Y010483D02*
X006510Y010483D01*
X006615Y010324D02*
X006018Y010324D01*
X003569Y013336D02*
X000741Y013336D01*
X000515Y013177D02*
X001322Y013177D01*
X001413Y013214D02*
X001144Y013103D01*
X000938Y012897D01*
X000827Y012629D01*
X000827Y012338D01*
X000938Y012069D01*
X001144Y011863D01*
X001413Y011752D01*
X001703Y011752D01*
X001972Y011863D01*
X002178Y012069D01*
X002289Y012338D01*
X002289Y012629D01*
X002178Y012897D01*
X001972Y013103D01*
X001703Y013214D01*
X001413Y013214D01*
X001793Y013177D02*
X003253Y013177D01*
X003095Y013019D02*
X002057Y013019D01*
X002193Y012860D02*
X003019Y012860D01*
X002957Y012702D02*
X002259Y012702D01*
X002289Y012543D02*
X002957Y012543D01*
X002961Y012385D02*
X002289Y012385D01*
X002243Y012226D02*
X003026Y012226D01*
X003112Y012068D02*
X002176Y012068D01*
X002018Y011909D02*
X003271Y011909D01*
X001098Y011909D02*
X000360Y011909D01*
X000360Y012068D02*
X000940Y012068D01*
X000873Y012226D02*
X000360Y012226D01*
X000360Y012385D02*
X000827Y012385D01*
X000827Y012543D02*
X000360Y012543D01*
X000360Y012702D02*
X000857Y012702D01*
X000923Y012860D02*
X000366Y012860D01*
X000415Y013019D02*
X001059Y013019D01*
M02*
