G75*
%MOIN*%
%OFA0B0*%
%FSLAX24Y24*%
%IPPOS*%
%LPD*%
%AMOC8*
5,1,8,0,0,1.08239X$1,22.5*
%
%ADD10C,0.0120*%
%ADD11C,0.0080*%
%ADD12R,0.1000X0.0200*%
%ADD13R,0.0300X0.0750*%
%ADD14R,0.0240X0.0340*%
%ADD15C,0.0090*%
D10*
X004580Y000780D02*
X004580Y001080D01*
X004580Y000780D02*
X005080Y000780D01*
X005480Y000980D01*
X005480Y000580D01*
X005080Y000780D01*
X005980Y000780D01*
X005980Y001080D01*
X005480Y000891D02*
X005302Y000891D01*
X005480Y000773D02*
X005095Y000773D01*
X005080Y000780D02*
X005080Y000580D01*
X005080Y000780D02*
X005080Y000980D01*
X005332Y000654D02*
X005480Y000654D01*
X008860Y002780D02*
X008860Y003080D01*
X008860Y003380D01*
X009110Y003380D02*
X009110Y003080D01*
X009110Y002780D01*
D11*
X000455Y003410D02*
X000455Y003730D01*
X000615Y004005D02*
X000615Y004166D01*
X000695Y004246D01*
X000935Y004246D01*
X000935Y004005D01*
X000855Y003925D01*
X000775Y004005D01*
X000775Y004246D01*
X000775Y004441D02*
X000615Y004681D01*
X000695Y004871D02*
X000615Y004951D01*
X000615Y005111D01*
X000695Y005191D01*
X000775Y005191D01*
X000775Y004871D01*
X000855Y004871D02*
X000695Y004871D01*
X000855Y004871D02*
X000935Y004951D01*
X000935Y005111D01*
X000935Y004681D02*
X000775Y004441D01*
X000935Y004441D02*
X000455Y004441D01*
X000695Y003570D02*
X000695Y003410D01*
X000935Y003410D02*
X000455Y003410D01*
X001535Y004080D02*
X001693Y004080D01*
X001755Y003530D02*
X003405Y003530D01*
X003467Y004080D02*
X003625Y004080D01*
X003140Y004620D02*
X003180Y004660D01*
X003140Y004620D02*
X003060Y004620D01*
X003020Y004660D01*
X003020Y004820D01*
X003060Y004860D01*
X003140Y004860D01*
X003180Y004820D01*
X002680Y004470D02*
X002680Y004430D01*
X002640Y004390D01*
X002520Y004390D01*
X002520Y004270D02*
X002640Y004270D01*
X002680Y004310D01*
X002680Y004350D01*
X002640Y004390D01*
X002680Y004470D02*
X002640Y004510D01*
X002520Y004510D01*
X002520Y004270D01*
X002270Y005183D02*
X002211Y005163D01*
X002154Y005140D01*
X002097Y005113D01*
X002043Y005082D01*
X001990Y005049D01*
X001940Y005012D01*
X001891Y004973D01*
X001846Y004930D01*
X001802Y004885D01*
X001762Y004838D01*
X001724Y004788D01*
X001689Y004736D01*
X001658Y004682D01*
X001630Y004627D01*
X001605Y004570D01*
X001584Y004511D01*
X001566Y004451D01*
X001551Y004390D01*
X001541Y004329D01*
X001534Y004267D01*
X001530Y004205D01*
X001531Y004142D01*
X001535Y004080D01*
X001970Y004620D02*
X002130Y004620D01*
X002050Y004740D02*
X001970Y004740D01*
X001970Y004860D02*
X001970Y004620D01*
X001970Y004860D02*
X002130Y004860D01*
X002890Y005183D02*
X002950Y005163D01*
X003009Y005139D01*
X003066Y005111D01*
X003121Y005080D01*
X003175Y005045D01*
X003226Y005008D01*
X003275Y004967D01*
X003321Y004923D01*
X003365Y004877D01*
X003406Y004828D01*
X003444Y004777D01*
X003478Y004724D01*
X003510Y004668D01*
X003537Y004611D01*
X003562Y004552D01*
X003582Y004492D01*
X003600Y004431D01*
X003613Y004369D01*
X003622Y004306D01*
X003628Y004243D01*
X003630Y004179D01*
X003628Y004115D01*
X003622Y004052D01*
X003613Y003989D01*
X003599Y003927D01*
X003582Y003866D01*
X003561Y003806D01*
X003537Y003747D01*
X003509Y003690D01*
X003477Y003634D01*
X003442Y003581D01*
X003405Y003530D01*
X002693Y004080D02*
X002467Y004080D01*
X001755Y003530D02*
X001720Y003578D01*
X001687Y003628D01*
X001656Y003680D01*
X001629Y003734D01*
X001605Y003789D01*
X001585Y003846D01*
X001567Y003903D01*
X001553Y003961D01*
X001542Y004020D01*
X001535Y004080D01*
X000935Y005902D02*
X000615Y005902D01*
X000455Y006062D01*
X000615Y006222D01*
X000935Y006222D01*
X000935Y006418D02*
X000935Y006578D01*
X000935Y006498D02*
X000455Y006498D01*
X000455Y006418D01*
X000695Y006222D02*
X000695Y005902D01*
X000855Y006761D02*
X000775Y006841D01*
X000775Y007082D01*
X000695Y007082D02*
X000935Y007082D01*
X000935Y006841D01*
X000855Y006761D01*
X000615Y006841D02*
X000615Y007002D01*
X000695Y007082D01*
X000615Y007277D02*
X000935Y007277D01*
X000775Y007277D02*
X000615Y007437D01*
X000615Y007517D01*
X000615Y007707D02*
X000615Y007787D01*
X000695Y007867D01*
X000615Y007947D01*
X000695Y008027D01*
X000935Y008027D01*
X000935Y007867D02*
X000695Y007867D01*
X000615Y007707D02*
X000935Y007707D01*
X000935Y008738D02*
X000455Y008738D01*
X000455Y008978D01*
X000535Y009058D01*
X000615Y009058D01*
X000695Y008978D01*
X000695Y008738D01*
X000935Y008738D02*
X000935Y008978D01*
X000855Y009058D01*
X000775Y009058D01*
X000695Y008978D01*
X000935Y009254D02*
X000935Y009414D01*
X000935Y009334D02*
X000455Y009334D01*
X000455Y009254D01*
X000615Y009597D02*
X000615Y009678D01*
X000935Y009678D01*
X000935Y009758D02*
X000935Y009597D01*
X000935Y009941D02*
X000615Y009941D01*
X000615Y010181D01*
X000695Y010261D01*
X000935Y010261D01*
X000935Y010457D02*
X000455Y010457D01*
X000615Y010697D02*
X000775Y010457D01*
X000935Y010697D01*
X000855Y010887D02*
X000695Y010887D01*
X000615Y010967D01*
X000615Y011127D01*
X000695Y011207D01*
X000775Y011207D01*
X000775Y010887D01*
X000855Y010887D02*
X000935Y010967D01*
X000935Y011127D01*
X000935Y011402D02*
X000615Y011402D01*
X000775Y011402D02*
X000615Y011562D01*
X000615Y011642D01*
X000455Y009678D02*
X000375Y009678D01*
X001680Y009480D02*
X001680Y007880D01*
X002680Y007880D01*
X002680Y009480D01*
X001680Y009480D01*
X001930Y009080D02*
X002180Y008680D01*
X002430Y008680D01*
X002180Y008680D02*
X002430Y009080D01*
X001930Y009080D01*
X002180Y009280D02*
X002180Y008680D01*
X001930Y008680D01*
X002180Y008680D02*
X002180Y008430D01*
X002930Y007680D02*
X002930Y007530D01*
X002932Y007513D01*
X002936Y007496D01*
X002943Y007480D01*
X002953Y007466D01*
X002966Y007453D01*
X002980Y007443D01*
X002996Y007436D01*
X003013Y007432D01*
X003030Y007430D01*
X003730Y007430D01*
X003747Y007432D01*
X003764Y007436D01*
X003780Y007443D01*
X003794Y007453D01*
X003807Y007466D01*
X003817Y007480D01*
X003824Y007496D01*
X003828Y007513D01*
X003830Y007530D01*
X003830Y007680D01*
X003780Y007730D01*
X003780Y009630D01*
X003830Y009680D01*
X003830Y009830D01*
X003828Y009847D01*
X003824Y009864D01*
X003817Y009880D01*
X003807Y009894D01*
X003794Y009907D01*
X003780Y009917D01*
X003764Y009924D01*
X003747Y009928D01*
X003730Y009930D01*
X003030Y009930D01*
X003013Y009928D01*
X002996Y009924D01*
X002980Y009917D01*
X002966Y009907D01*
X002953Y009894D01*
X002943Y009880D01*
X002936Y009864D01*
X002932Y009847D01*
X002930Y009830D01*
X002930Y009680D01*
X002980Y009630D01*
X002980Y007730D01*
X002930Y007680D01*
X004130Y007680D02*
X004130Y007530D01*
X004132Y007513D01*
X004136Y007496D01*
X004143Y007480D01*
X004153Y007466D01*
X004166Y007453D01*
X004180Y007443D01*
X004196Y007436D01*
X004213Y007432D01*
X004230Y007430D01*
X004930Y007430D01*
X004947Y007432D01*
X004964Y007436D01*
X004980Y007443D01*
X004994Y007453D01*
X005007Y007466D01*
X005017Y007480D01*
X005024Y007496D01*
X005028Y007513D01*
X005030Y007530D01*
X005030Y007680D01*
X004980Y007730D01*
X004980Y009630D01*
X005030Y009680D01*
X005030Y009830D01*
X005028Y009847D01*
X005024Y009864D01*
X005017Y009880D01*
X005007Y009894D01*
X004994Y009907D01*
X004980Y009917D01*
X004964Y009924D01*
X004947Y009928D01*
X004930Y009930D01*
X004230Y009930D01*
X004213Y009928D01*
X004196Y009924D01*
X004180Y009917D01*
X004166Y009907D01*
X004153Y009894D01*
X004143Y009880D01*
X004136Y009864D01*
X004132Y009847D01*
X004130Y009830D01*
X004130Y009680D01*
X004180Y009630D01*
X004180Y007730D01*
X004130Y007680D01*
X004530Y006180D02*
X005280Y006180D01*
X005282Y006141D01*
X005288Y006102D01*
X005297Y006064D01*
X005310Y006027D01*
X005327Y005991D01*
X005347Y005958D01*
X005371Y005926D01*
X005397Y005897D01*
X005426Y005871D01*
X005458Y005847D01*
X005491Y005827D01*
X005527Y005810D01*
X005564Y005797D01*
X005602Y005788D01*
X005641Y005782D01*
X005680Y005780D01*
X005719Y005782D01*
X005758Y005788D01*
X005796Y005797D01*
X005833Y005810D01*
X005869Y005827D01*
X005902Y005847D01*
X005934Y005871D01*
X005963Y005897D01*
X005989Y005926D01*
X006013Y005958D01*
X006033Y005991D01*
X006050Y006027D01*
X006063Y006064D01*
X006072Y006102D01*
X006078Y006141D01*
X006080Y006180D01*
X006830Y006180D01*
X006830Y002180D01*
X004530Y002180D01*
X004530Y006180D01*
X005430Y007430D02*
X006130Y007430D01*
X006147Y007432D01*
X006164Y007436D01*
X006180Y007443D01*
X006194Y007453D01*
X006207Y007466D01*
X006217Y007480D01*
X006224Y007496D01*
X006228Y007513D01*
X006230Y007530D01*
X006230Y007680D01*
X006180Y007730D01*
X006180Y009630D01*
X006230Y009680D01*
X006230Y009830D01*
X006228Y009847D01*
X006224Y009864D01*
X006217Y009880D01*
X006207Y009894D01*
X006194Y009907D01*
X006180Y009917D01*
X006164Y009924D01*
X006147Y009928D01*
X006130Y009930D01*
X005430Y009930D01*
X005413Y009928D01*
X005396Y009924D01*
X005380Y009917D01*
X005366Y009907D01*
X005353Y009894D01*
X005343Y009880D01*
X005336Y009864D01*
X005332Y009847D01*
X005330Y009830D01*
X005330Y009680D01*
X005380Y009630D01*
X005380Y007730D01*
X005330Y007680D01*
X005330Y007530D01*
X005332Y007513D01*
X005336Y007496D01*
X005343Y007480D01*
X005353Y007466D01*
X005366Y007453D01*
X005380Y007443D01*
X005396Y007436D01*
X005413Y007432D01*
X005430Y007430D01*
X006480Y007880D02*
X007480Y007880D01*
X007480Y009480D01*
X006480Y009480D01*
X006480Y007880D01*
X006980Y008430D02*
X006980Y008680D01*
X007230Y008680D01*
X006980Y008680D02*
X007230Y009080D01*
X006730Y009080D01*
X006980Y008680D01*
X006730Y008680D01*
X006980Y008680D02*
X006980Y009280D01*
X007730Y009680D02*
X007780Y009630D01*
X007780Y007730D01*
X007730Y007680D01*
X007730Y007530D01*
X007732Y007513D01*
X007736Y007496D01*
X007743Y007480D01*
X007753Y007466D01*
X007766Y007453D01*
X007780Y007443D01*
X007796Y007436D01*
X007813Y007432D01*
X007830Y007430D01*
X008530Y007430D01*
X008547Y007432D01*
X008564Y007436D01*
X008580Y007443D01*
X008594Y007453D01*
X008607Y007466D01*
X008617Y007480D01*
X008624Y007496D01*
X008628Y007513D01*
X008630Y007530D01*
X008630Y007680D01*
X008580Y007730D01*
X008580Y009630D01*
X008630Y009680D01*
X008630Y009830D01*
X008628Y009847D01*
X008624Y009864D01*
X008617Y009880D01*
X008607Y009894D01*
X008594Y009907D01*
X008580Y009917D01*
X008564Y009924D01*
X008547Y009928D01*
X008530Y009930D01*
X007830Y009930D01*
X007813Y009928D01*
X007796Y009924D01*
X007780Y009917D01*
X007766Y009907D01*
X007753Y009894D01*
X007743Y009880D01*
X007736Y009864D01*
X007732Y009847D01*
X007730Y009830D01*
X007730Y009680D01*
X008930Y009680D02*
X008930Y009830D01*
X008932Y009847D01*
X008936Y009864D01*
X008943Y009880D01*
X008953Y009894D01*
X008966Y009907D01*
X008980Y009917D01*
X008996Y009924D01*
X009013Y009928D01*
X009030Y009930D01*
X009730Y009930D01*
X009747Y009928D01*
X009764Y009924D01*
X009780Y009917D01*
X009794Y009907D01*
X009807Y009894D01*
X009817Y009880D01*
X009824Y009864D01*
X009828Y009847D01*
X009830Y009830D01*
X009830Y009680D01*
X009780Y009630D01*
X009780Y007730D01*
X009830Y007680D01*
X009830Y007530D01*
X009828Y007513D01*
X009824Y007496D01*
X009817Y007480D01*
X009807Y007466D01*
X009794Y007453D01*
X009780Y007443D01*
X009764Y007436D01*
X009747Y007432D01*
X009730Y007430D01*
X009030Y007430D01*
X009013Y007432D01*
X008996Y007436D01*
X008980Y007443D01*
X008966Y007453D01*
X008953Y007466D01*
X008943Y007480D01*
X008936Y007496D01*
X008932Y007513D01*
X008930Y007530D01*
X008930Y007680D01*
X008980Y007730D01*
X008980Y009630D01*
X008930Y009680D01*
X008271Y011342D02*
X008061Y011342D01*
X008061Y011762D01*
X008271Y011762D01*
X008341Y011692D01*
X008341Y011412D01*
X008271Y011342D01*
X007881Y011342D02*
X007881Y011762D01*
X007600Y011762D02*
X007600Y011342D01*
X007420Y011412D02*
X007420Y011552D01*
X007280Y011552D01*
X007140Y011692D02*
X007140Y011412D01*
X007210Y011342D01*
X007350Y011342D01*
X007420Y011412D01*
X007420Y011692D02*
X007350Y011762D01*
X007210Y011762D01*
X007140Y011692D01*
X007600Y011762D02*
X007881Y011342D01*
X008925Y011922D02*
X008925Y012132D01*
X008995Y012202D01*
X009135Y012202D01*
X009205Y012132D01*
X009205Y011922D01*
X009205Y012062D02*
X009346Y012202D01*
X009275Y012382D02*
X008995Y012662D01*
X009275Y012662D01*
X009346Y012592D01*
X009346Y012452D01*
X009275Y012382D01*
X008995Y012382D01*
X008925Y012452D01*
X008925Y012592D01*
X008995Y012662D01*
X009275Y012842D02*
X009275Y012912D01*
X009346Y012912D01*
X009346Y012842D01*
X009275Y012842D01*
X009346Y013073D02*
X009346Y013353D01*
X009346Y013213D02*
X008925Y013213D01*
X009065Y013073D01*
X008925Y011922D02*
X009346Y011922D01*
X006299Y011792D02*
X006018Y011792D01*
X006158Y011792D02*
X006158Y011372D01*
X005838Y011372D02*
X005838Y011652D01*
X005698Y011792D01*
X005558Y011652D01*
X005558Y011372D01*
X005558Y011582D02*
X005838Y011582D01*
X005378Y011652D02*
X005308Y011582D01*
X005098Y011582D01*
X005098Y011372D02*
X005098Y011792D01*
X005308Y011792D01*
X005378Y011722D01*
X005378Y011652D01*
X005308Y011582D02*
X005378Y011512D01*
X005378Y011442D01*
X005308Y011372D01*
X005098Y011372D01*
X004341Y011342D02*
X004341Y011762D01*
X004061Y011762D02*
X004061Y011342D01*
X003881Y011412D02*
X003881Y011762D01*
X004061Y011762D02*
X004341Y011342D01*
X003881Y011412D02*
X003811Y011342D01*
X003671Y011342D01*
X003600Y011412D01*
X003600Y011762D01*
X003420Y011692D02*
X003420Y011552D01*
X003350Y011482D01*
X003140Y011482D01*
X003280Y011482D02*
X003420Y011342D01*
X003140Y011342D02*
X003140Y011762D01*
X003350Y011762D01*
X003420Y011692D01*
X008180Y005380D02*
X008330Y005380D01*
X008330Y005530D01*
X008330Y005380D02*
X008480Y005380D01*
X008330Y005380D02*
X008330Y005230D01*
X007880Y004880D02*
X007882Y004946D01*
X007888Y005011D01*
X007898Y005076D01*
X007911Y005141D01*
X007929Y005204D01*
X007950Y005267D01*
X007975Y005327D01*
X008004Y005387D01*
X008036Y005444D01*
X008071Y005500D01*
X008110Y005553D01*
X008152Y005604D01*
X008196Y005652D01*
X008244Y005697D01*
X008294Y005740D01*
X008347Y005779D01*
X008402Y005816D01*
X008459Y005849D01*
X008518Y005878D01*
X008578Y005904D01*
X008640Y005926D01*
X008703Y005945D01*
X008767Y005959D01*
X008832Y005970D01*
X008898Y005977D01*
X008964Y005980D01*
X009029Y005979D01*
X009095Y005974D01*
X009160Y005965D01*
X009225Y005952D01*
X009288Y005936D01*
X009351Y005916D01*
X009412Y005891D01*
X009472Y005864D01*
X009530Y005833D01*
X009586Y005798D01*
X009640Y005760D01*
X009691Y005719D01*
X009740Y005675D01*
X009786Y005628D01*
X009830Y005579D01*
X009870Y005527D01*
X009907Y005472D01*
X009941Y005416D01*
X009971Y005357D01*
X009998Y005297D01*
X010021Y005236D01*
X010040Y005173D01*
X010056Y005109D01*
X010068Y005044D01*
X010076Y004979D01*
X010080Y004913D01*
X010080Y004847D01*
X010076Y004781D01*
X010068Y004716D01*
X010056Y004651D01*
X010040Y004587D01*
X010021Y004524D01*
X009998Y004463D01*
X009971Y004403D01*
X009941Y004344D01*
X009907Y004288D01*
X009870Y004233D01*
X009830Y004181D01*
X009786Y004132D01*
X009740Y004085D01*
X009691Y004041D01*
X009640Y004000D01*
X009586Y003962D01*
X009530Y003927D01*
X009472Y003896D01*
X009412Y003869D01*
X009351Y003844D01*
X009288Y003824D01*
X009225Y003808D01*
X009160Y003795D01*
X009095Y003786D01*
X009029Y003781D01*
X008964Y003780D01*
X008898Y003783D01*
X008832Y003790D01*
X008767Y003801D01*
X008703Y003815D01*
X008640Y003834D01*
X008578Y003856D01*
X008518Y003882D01*
X008459Y003911D01*
X008402Y003944D01*
X008347Y003981D01*
X008294Y004020D01*
X008244Y004063D01*
X008196Y004108D01*
X008152Y004156D01*
X008110Y004207D01*
X008071Y004260D01*
X008036Y004316D01*
X008004Y004373D01*
X007975Y004433D01*
X007950Y004493D01*
X007929Y004556D01*
X007911Y004619D01*
X007898Y004684D01*
X007888Y004749D01*
X007882Y004814D01*
X007880Y004880D01*
X008330Y003530D02*
X009630Y003530D01*
X009656Y003528D01*
X009682Y003523D01*
X009707Y003515D01*
X009730Y003503D01*
X009752Y003489D01*
X009771Y003471D01*
X009789Y003452D01*
X009803Y003430D01*
X009815Y003407D01*
X009823Y003382D01*
X009828Y003356D01*
X009830Y003330D01*
X009480Y003080D02*
X009110Y003080D01*
X008860Y003080D02*
X008480Y003080D01*
X008130Y002830D02*
X008132Y002804D01*
X008137Y002778D01*
X008145Y002753D01*
X008157Y002730D01*
X008171Y002708D01*
X008189Y002689D01*
X008208Y002671D01*
X008230Y002657D01*
X008253Y002645D01*
X008278Y002637D01*
X008304Y002632D01*
X008330Y002630D01*
X009630Y002630D01*
X009656Y002632D01*
X009682Y002637D01*
X009707Y002645D01*
X009730Y002657D01*
X009752Y002671D01*
X009771Y002689D01*
X009789Y002708D01*
X009803Y002730D01*
X009815Y002753D01*
X009823Y002778D01*
X009828Y002804D01*
X009830Y002830D01*
X008330Y003530D02*
X008304Y003528D01*
X008278Y003523D01*
X008253Y003515D01*
X008230Y003503D01*
X008208Y003489D01*
X008189Y003471D01*
X008171Y003452D01*
X008157Y003430D01*
X008145Y003407D01*
X008137Y003382D01*
X008132Y003356D01*
X008130Y003330D01*
X007852Y002066D02*
X007708Y002066D01*
X007689Y001876D01*
X007625Y001855D01*
X007565Y001824D01*
X007416Y001945D01*
X007315Y001844D01*
X007436Y001695D01*
X007405Y001635D01*
X007384Y001571D01*
X007194Y001552D01*
X007194Y001408D01*
X007384Y001389D01*
X007405Y001325D01*
X007436Y001265D01*
X007315Y001116D01*
X007416Y001015D01*
X007565Y001136D01*
X007625Y001105D01*
X007689Y001084D01*
X007708Y000894D01*
X007852Y000894D01*
X007871Y001084D01*
X007935Y001105D01*
X007995Y001136D01*
X008144Y001015D01*
X008245Y001116D01*
X008124Y001265D01*
X008155Y001325D01*
X007951Y001409D01*
X007929Y001372D01*
X007900Y001340D01*
X007864Y001316D01*
X007823Y001301D01*
X007780Y001295D01*
X007736Y001301D01*
X007695Y001316D01*
X007658Y001341D01*
X007629Y001374D01*
X007608Y001413D01*
X007597Y001456D01*
X007597Y001500D01*
X007607Y001543D01*
X007627Y001582D01*
X007655Y001616D01*
X007691Y001642D01*
X007732Y001658D01*
X007776Y001664D01*
X007820Y001660D01*
X007862Y001645D01*
X007899Y001621D01*
X007929Y001589D01*
X007951Y001551D01*
X008155Y001635D01*
X008124Y001695D01*
X008245Y001844D01*
X008144Y001945D01*
X007995Y001824D01*
X007935Y001855D01*
X007871Y001876D01*
X007852Y002066D01*
X007852Y002064D02*
X007708Y002064D01*
X007700Y001986D02*
X007860Y001986D01*
X007868Y001907D02*
X007692Y001907D01*
X007573Y001829D02*
X007987Y001829D01*
X008000Y001829D02*
X008233Y001829D01*
X008182Y001907D02*
X008097Y001907D01*
X008169Y001750D02*
X007391Y001750D01*
X007423Y001672D02*
X008137Y001672D01*
X008053Y001593D02*
X007925Y001593D01*
X007916Y001358D02*
X008076Y001358D01*
X008132Y001279D02*
X007428Y001279D01*
X007394Y001358D02*
X007644Y001358D01*
X007602Y001436D02*
X007194Y001436D01*
X007194Y001515D02*
X007600Y001515D01*
X007636Y001593D02*
X007391Y001593D01*
X007327Y001829D02*
X007560Y001829D01*
X007463Y001907D02*
X007378Y001907D01*
X007383Y001201D02*
X008177Y001201D01*
X008241Y001122D02*
X008012Y001122D01*
X007969Y001122D02*
X007591Y001122D01*
X007548Y001122D02*
X007319Y001122D01*
X007388Y001044D02*
X007452Y001044D01*
X007693Y001044D02*
X007867Y001044D01*
X007859Y000965D02*
X007701Y000965D01*
X008108Y001044D02*
X008172Y001044D01*
X004165Y001373D02*
X004165Y001587D01*
X004112Y001640D01*
X003952Y001640D01*
X003952Y001320D01*
X004112Y001320D01*
X004165Y001373D01*
X003797Y001320D02*
X003583Y001320D01*
X003583Y001640D01*
X003797Y001640D01*
X003690Y001480D02*
X003583Y001480D01*
X003429Y001320D02*
X003215Y001320D01*
X003215Y001640D01*
D12*
X002180Y008130D03*
X006980Y008130D03*
D13*
X006980Y007505D03*
X006980Y009855D03*
X002180Y009855D03*
X002180Y007505D03*
D14*
X003380Y007260D03*
X004580Y007260D03*
X005780Y007260D03*
X005780Y010100D03*
X004580Y010100D03*
X003380Y010100D03*
X008180Y010100D03*
X009380Y010100D03*
X009380Y007260D03*
X008180Y007260D03*
D15*
X010276Y007020D02*
X010847Y007020D01*
X010847Y006793D02*
X010847Y006507D01*
X010752Y006412D01*
X010562Y006412D01*
X010466Y006507D01*
X010466Y006793D01*
X010942Y006793D01*
X011037Y006698D01*
X011037Y006602D01*
X010847Y006185D02*
X010466Y006185D01*
X010466Y005805D02*
X010752Y005805D01*
X010847Y005900D01*
X010847Y006185D01*
X010752Y005577D02*
X010562Y005577D01*
X010466Y005482D01*
X010466Y005292D01*
X010562Y005197D01*
X010752Y005197D01*
X010847Y005292D01*
X010847Y005482D01*
X010752Y005577D01*
X010847Y004969D02*
X010562Y004969D01*
X010466Y004874D01*
X010466Y004684D01*
X010562Y004589D01*
X010466Y004374D02*
X010466Y004184D01*
X010371Y004279D02*
X010752Y004279D01*
X010847Y004374D01*
X010847Y004589D02*
X010276Y004589D01*
X010562Y003957D02*
X010562Y003576D01*
X010466Y003361D02*
X010466Y003171D01*
X010371Y003266D02*
X010752Y003266D01*
X010847Y003361D01*
X010752Y002944D02*
X010562Y002944D01*
X010466Y002849D01*
X010466Y002659D01*
X010562Y002563D01*
X010752Y002563D01*
X010847Y002659D01*
X010847Y002849D01*
X010752Y002944D01*
X010752Y002336D02*
X010562Y002336D01*
X010466Y002241D01*
X010466Y001956D01*
X010276Y001956D02*
X010847Y001956D01*
X010847Y002241D01*
X010752Y002336D01*
X010562Y007020D02*
X010466Y007115D01*
X010466Y007305D01*
X010562Y007400D01*
X010847Y007400D01*
X010752Y007723D02*
X010847Y007818D01*
X010752Y007723D02*
X010371Y007723D01*
X010466Y007628D02*
X010466Y007818D01*
X010562Y008033D02*
X010466Y008128D01*
X010466Y008413D01*
X010657Y008318D02*
X010657Y008128D01*
X010562Y008033D01*
X010657Y008318D02*
X010752Y008413D01*
X010847Y008318D01*
X010847Y008033D01*
X010847Y008641D02*
X010752Y008641D01*
X010752Y008736D01*
X010847Y008736D01*
X010847Y008641D01*
X010752Y008944D02*
X010847Y009040D01*
X010847Y009325D01*
X010752Y009552D02*
X010562Y009552D01*
X010466Y009647D01*
X010466Y009837D01*
X010562Y009933D01*
X010752Y009933D01*
X010847Y009837D01*
X010847Y009647D01*
X010752Y009552D01*
X010466Y009325D02*
X010466Y009040D01*
X010562Y008944D01*
X010752Y008944D01*
X010847Y010160D02*
X010466Y010160D01*
X010466Y010255D01*
X010562Y010350D01*
X010466Y010445D01*
X010562Y010540D01*
X010847Y010540D01*
X010847Y010350D02*
X010562Y010350D01*
X006515Y001700D02*
X006515Y001320D01*
X006325Y001510D02*
X006705Y001510D01*
M02*
