G75*
%MOIN*%
%OFA0B0*%
%FSLAX24Y24*%
%IPPOS*%
%LPD*%
%AMOC8*
5,1,8,0,0,1.08239X$1,22.5*
%
%ADD10C,0.0120*%
%ADD11C,0.0080*%
%ADD12R,0.1000X0.0200*%
%ADD13R,0.0300X0.0750*%
%ADD14R,0.0240X0.0340*%
D10*
X004330Y000730D02*
X004330Y001080D01*
X004330Y000730D02*
X005280Y000730D01*
X004780Y000980D01*
X004780Y000480D01*
X005280Y000730D01*
X005730Y000730D01*
X005730Y001080D01*
X005280Y000980D02*
X005280Y000730D01*
X005280Y000480D01*
X005128Y000654D02*
X004780Y000654D01*
X004780Y000536D02*
X004891Y000536D01*
X004780Y000773D02*
X005195Y000773D01*
X004958Y000891D02*
X004780Y000891D01*
X008610Y002780D02*
X008610Y003080D01*
X008610Y003380D01*
X008860Y003380D02*
X008860Y003080D01*
X008860Y002780D01*
D11*
X000555Y003060D02*
X000555Y003380D01*
X000795Y003220D02*
X000795Y003060D01*
X001035Y003060D02*
X000555Y003060D01*
X000715Y003655D02*
X000715Y003816D01*
X000795Y003896D01*
X001035Y003896D01*
X001035Y003655D01*
X000955Y003575D01*
X000875Y003655D01*
X000875Y003896D01*
X000875Y004091D02*
X000715Y004331D01*
X000795Y004521D02*
X000715Y004601D01*
X000715Y004761D01*
X000795Y004841D01*
X000875Y004841D01*
X000875Y004521D01*
X000955Y004521D02*
X000795Y004521D01*
X000955Y004521D02*
X001035Y004601D01*
X001035Y004761D01*
X001035Y004331D02*
X000875Y004091D01*
X001035Y004091D02*
X000555Y004091D01*
X001371Y003701D02*
X001852Y003701D01*
X001852Y003941D01*
X001772Y004021D01*
X001612Y004021D01*
X001532Y003941D01*
X001532Y003701D01*
X001612Y004216D02*
X001772Y004216D01*
X001852Y004296D01*
X001852Y004457D01*
X001772Y004537D01*
X001612Y004537D01*
X001532Y004457D01*
X001532Y004296D01*
X001612Y004216D01*
X001532Y004732D02*
X001532Y004892D01*
X001451Y004812D02*
X001772Y004812D01*
X001852Y004892D01*
X001612Y005076D02*
X001612Y005396D01*
X001532Y005591D02*
X001532Y005752D01*
X001451Y005671D02*
X001772Y005671D01*
X001852Y005752D01*
X001852Y005935D02*
X001371Y005935D01*
X001532Y006015D02*
X001532Y006175D01*
X001612Y006255D01*
X001852Y006255D01*
X001772Y006451D02*
X001852Y006531D01*
X001852Y006691D01*
X001772Y006771D01*
X001612Y006771D01*
X001532Y006691D01*
X001532Y006531D01*
X001612Y006451D01*
X001772Y006451D01*
X001532Y006015D02*
X001612Y005935D01*
X001035Y005872D02*
X000715Y005872D01*
X000555Y005712D01*
X000715Y005552D01*
X001035Y005552D01*
X000795Y005552D02*
X000795Y005872D01*
X000555Y006068D02*
X000555Y006148D01*
X001035Y006148D01*
X001035Y006068D02*
X001035Y006228D01*
X000955Y006411D02*
X000875Y006491D01*
X000875Y006732D01*
X000795Y006732D02*
X001035Y006732D01*
X001035Y006491D01*
X000955Y006411D01*
X000715Y006491D02*
X000715Y006652D01*
X000795Y006732D01*
X000715Y006927D02*
X001035Y006927D01*
X000875Y006927D02*
X000715Y007087D01*
X000715Y007167D01*
X000715Y007357D02*
X000715Y007437D01*
X000795Y007517D01*
X000715Y007597D01*
X000795Y007677D01*
X001035Y007677D01*
X001035Y007517D02*
X000795Y007517D01*
X000715Y007357D02*
X001035Y007357D01*
X001371Y007998D02*
X001852Y007998D01*
X001852Y007802D02*
X001852Y007562D01*
X001772Y007482D01*
X001612Y007482D01*
X001532Y007562D01*
X001532Y007802D01*
X001932Y007802D01*
X002012Y007722D01*
X002012Y007642D01*
X001852Y007287D02*
X001532Y007287D01*
X001532Y006966D02*
X001772Y006966D01*
X001852Y007046D01*
X001852Y007287D01*
X002330Y007880D02*
X003330Y007880D01*
X003330Y009480D01*
X002330Y009480D01*
X002330Y007880D01*
X001852Y008318D02*
X001612Y008318D01*
X001532Y008238D01*
X001532Y008078D01*
X001612Y007998D01*
X001532Y008513D02*
X001532Y008673D01*
X001451Y008593D02*
X001772Y008593D01*
X001852Y008673D01*
X001852Y008857D02*
X001852Y009097D01*
X001772Y009177D01*
X001692Y009097D01*
X001692Y008937D01*
X001612Y008857D01*
X001532Y008937D01*
X001532Y009177D01*
X001772Y009373D02*
X001772Y009453D01*
X001852Y009453D01*
X001852Y009373D01*
X001772Y009373D01*
X001772Y009631D02*
X001612Y009631D01*
X001532Y009711D01*
X001532Y009951D01*
X001612Y010146D02*
X001772Y010146D01*
X001852Y010226D01*
X001852Y010386D01*
X001772Y010466D01*
X001612Y010466D01*
X001532Y010386D01*
X001532Y010226D01*
X001612Y010146D01*
X001852Y009951D02*
X001852Y009711D01*
X001772Y009631D01*
X001035Y009591D02*
X000715Y009591D01*
X000715Y009831D01*
X000795Y009911D01*
X001035Y009911D01*
X001035Y010107D02*
X000555Y010107D01*
X000715Y010347D02*
X000875Y010107D01*
X001035Y010347D01*
X000955Y010537D02*
X000795Y010537D01*
X000715Y010617D01*
X000715Y010777D01*
X000795Y010857D01*
X000875Y010857D01*
X000875Y010537D01*
X000955Y010537D02*
X001035Y010617D01*
X001035Y010777D01*
X001035Y011052D02*
X000715Y011052D01*
X000875Y011052D02*
X000715Y011212D01*
X000715Y011292D01*
X001532Y010902D02*
X001612Y010982D01*
X001852Y010982D01*
X001852Y010822D02*
X001612Y010822D01*
X001532Y010902D01*
X001612Y010822D02*
X001532Y010742D01*
X001532Y010662D01*
X001852Y010662D01*
X002870Y011270D02*
X003080Y011270D01*
X003150Y011340D01*
X003150Y011410D01*
X003080Y011480D01*
X002870Y011480D01*
X002870Y011270D02*
X002870Y011690D01*
X003080Y011690D01*
X003150Y011620D01*
X003150Y011550D01*
X003080Y011480D01*
X003330Y011480D02*
X003611Y011480D01*
X003611Y011550D02*
X003611Y011270D01*
X003611Y011550D02*
X003471Y011690D01*
X003330Y011550D01*
X003330Y011270D01*
X003791Y011690D02*
X004071Y011690D01*
X003931Y011690D02*
X003931Y011270D01*
X004870Y011270D02*
X004870Y011690D01*
X005080Y011690D01*
X005150Y011620D01*
X005150Y011480D01*
X005080Y011410D01*
X004870Y011410D01*
X005010Y011410D02*
X005150Y011270D01*
X005330Y011340D02*
X005400Y011270D01*
X005541Y011270D01*
X005611Y011340D01*
X005611Y011690D01*
X005791Y011690D02*
X006071Y011270D01*
X006071Y011690D01*
X005791Y011690D02*
X005791Y011270D01*
X005330Y011340D02*
X005330Y011690D01*
X004830Y010780D02*
X004830Y009180D01*
X004530Y009630D02*
X004580Y009680D01*
X004580Y009830D01*
X004578Y009847D01*
X004574Y009864D01*
X004567Y009880D01*
X004557Y009894D01*
X004544Y009907D01*
X004530Y009917D01*
X004514Y009924D01*
X004497Y009928D01*
X004480Y009930D01*
X003780Y009930D01*
X003763Y009928D01*
X003746Y009924D01*
X003730Y009917D01*
X003716Y009907D01*
X003703Y009894D01*
X003693Y009880D01*
X003686Y009864D01*
X003682Y009847D01*
X003680Y009830D01*
X003680Y009680D01*
X003730Y009630D01*
X003730Y007730D01*
X003680Y007680D01*
X003680Y007530D01*
X003682Y007513D01*
X003686Y007496D01*
X003693Y007480D01*
X003703Y007466D01*
X003716Y007453D01*
X003730Y007443D01*
X003746Y007436D01*
X003763Y007432D01*
X003780Y007430D01*
X004480Y007430D01*
X004497Y007432D01*
X004514Y007436D01*
X004530Y007443D01*
X004544Y007453D01*
X004557Y007466D01*
X004567Y007480D01*
X004574Y007496D01*
X004578Y007513D01*
X004580Y007530D01*
X004580Y007680D01*
X004530Y007730D01*
X004530Y009630D01*
X004830Y008480D02*
X004830Y006880D01*
X005030Y006180D02*
X004280Y006180D01*
X004280Y002180D01*
X006580Y002180D01*
X006580Y006180D01*
X005830Y006180D01*
X005828Y006141D01*
X005822Y006102D01*
X005813Y006064D01*
X005800Y006027D01*
X005783Y005991D01*
X005763Y005958D01*
X005739Y005926D01*
X005713Y005897D01*
X005684Y005871D01*
X005652Y005847D01*
X005619Y005827D01*
X005583Y005810D01*
X005546Y005797D01*
X005508Y005788D01*
X005469Y005782D01*
X005430Y005780D01*
X005391Y005782D01*
X005352Y005788D01*
X005314Y005797D01*
X005277Y005810D01*
X005241Y005827D01*
X005208Y005847D01*
X005176Y005871D01*
X005147Y005897D01*
X005121Y005926D01*
X005097Y005958D01*
X005077Y005991D01*
X005060Y006027D01*
X005047Y006064D01*
X005038Y006102D01*
X005032Y006141D01*
X005030Y006180D01*
X005330Y006680D02*
X005392Y006682D01*
X005453Y006688D01*
X005514Y006697D01*
X005574Y006710D01*
X005633Y006727D01*
X005691Y006748D01*
X005748Y006772D01*
X005803Y006799D01*
X005856Y006830D01*
X005908Y006864D01*
X005957Y006901D01*
X006004Y006941D01*
X006048Y006984D01*
X006089Y007029D01*
X006128Y007077D01*
X006164Y007128D01*
X006196Y007180D01*
X006225Y007234D01*
X006251Y007290D01*
X006273Y007348D01*
X006292Y007406D01*
X006307Y007466D01*
X006318Y007527D01*
X006326Y007588D01*
X006330Y007649D01*
X006330Y007711D01*
X006326Y007772D01*
X006318Y007833D01*
X006307Y007894D01*
X006292Y007954D01*
X006273Y008012D01*
X006251Y008070D01*
X006225Y008126D01*
X006196Y008180D01*
X006164Y008232D01*
X006128Y008283D01*
X006089Y008331D01*
X006048Y008376D01*
X006004Y008419D01*
X005957Y008459D01*
X005908Y008496D01*
X005856Y008530D01*
X005803Y008561D01*
X005748Y008588D01*
X005691Y008612D01*
X005633Y008633D01*
X005574Y008650D01*
X005514Y008663D01*
X005453Y008672D01*
X005392Y008678D01*
X005330Y008680D01*
X005270Y008672D01*
X005211Y008660D01*
X005152Y008644D01*
X005095Y008625D01*
X005038Y008602D01*
X004984Y008577D01*
X004931Y008547D01*
X004879Y008515D01*
X004830Y008480D01*
X004830Y006880D02*
X004879Y006845D01*
X004931Y006813D01*
X004984Y006783D01*
X005038Y006758D01*
X005095Y006735D01*
X005152Y006716D01*
X005211Y006700D01*
X005270Y006688D01*
X005330Y006680D01*
X006580Y007530D02*
X006580Y007680D01*
X006630Y007730D01*
X006630Y009630D01*
X006580Y009680D01*
X006580Y009830D01*
X006582Y009847D01*
X006586Y009864D01*
X006593Y009880D01*
X006603Y009894D01*
X006616Y009907D01*
X006630Y009917D01*
X006646Y009924D01*
X006663Y009928D01*
X006680Y009930D01*
X007380Y009930D01*
X007397Y009928D01*
X007414Y009924D01*
X007430Y009917D01*
X007444Y009907D01*
X007457Y009894D01*
X007467Y009880D01*
X007474Y009864D01*
X007478Y009847D01*
X007480Y009830D01*
X007480Y009680D01*
X007430Y009630D01*
X007430Y007730D01*
X007480Y007680D01*
X007480Y007530D01*
X007478Y007513D01*
X007474Y007496D01*
X007467Y007480D01*
X007457Y007466D01*
X007444Y007453D01*
X007430Y007443D01*
X007414Y007436D01*
X007397Y007432D01*
X007380Y007430D01*
X006680Y007430D01*
X006663Y007432D01*
X006646Y007436D01*
X006630Y007443D01*
X006616Y007453D01*
X006603Y007466D01*
X006593Y007480D01*
X006586Y007496D01*
X006582Y007513D01*
X006580Y007530D01*
X007780Y007530D02*
X007780Y007680D01*
X007830Y007730D01*
X007830Y009630D01*
X007780Y009680D01*
X007780Y009830D01*
X007782Y009847D01*
X007786Y009864D01*
X007793Y009880D01*
X007803Y009894D01*
X007816Y009907D01*
X007830Y009917D01*
X007846Y009924D01*
X007863Y009928D01*
X007880Y009930D01*
X008580Y009930D01*
X008597Y009928D01*
X008614Y009924D01*
X008630Y009917D01*
X008644Y009907D01*
X008657Y009894D01*
X008667Y009880D01*
X008674Y009864D01*
X008678Y009847D01*
X008680Y009830D01*
X008680Y009680D01*
X008630Y009630D01*
X008630Y007730D01*
X008680Y007680D01*
X008680Y007530D01*
X008678Y007513D01*
X008674Y007496D01*
X008667Y007480D01*
X008657Y007466D01*
X008644Y007453D01*
X008630Y007443D01*
X008614Y007436D01*
X008597Y007432D01*
X008580Y007430D01*
X007880Y007430D01*
X007863Y007432D01*
X007846Y007436D01*
X007830Y007443D01*
X007816Y007453D01*
X007803Y007466D01*
X007793Y007480D01*
X007786Y007496D01*
X007782Y007513D01*
X007780Y007530D01*
X008980Y007530D02*
X008980Y007680D01*
X009030Y007730D01*
X009030Y009630D01*
X008980Y009680D01*
X008980Y009830D01*
X008982Y009847D01*
X008986Y009864D01*
X008993Y009880D01*
X009003Y009894D01*
X009016Y009907D01*
X009030Y009917D01*
X009046Y009924D01*
X009063Y009928D01*
X009080Y009930D01*
X009780Y009930D01*
X009797Y009928D01*
X009814Y009924D01*
X009830Y009917D01*
X009844Y009907D01*
X009857Y009894D01*
X009867Y009880D01*
X009874Y009864D01*
X009878Y009847D01*
X009880Y009830D01*
X009880Y009680D01*
X009830Y009630D01*
X009830Y007730D01*
X009880Y007680D01*
X009880Y007530D01*
X009878Y007513D01*
X009874Y007496D01*
X009867Y007480D01*
X009857Y007466D01*
X009844Y007453D01*
X009830Y007443D01*
X009814Y007436D01*
X009797Y007432D01*
X009780Y007430D01*
X009080Y007430D01*
X009063Y007432D01*
X009046Y007436D01*
X009030Y007443D01*
X009016Y007453D01*
X009003Y007466D01*
X008993Y007480D01*
X008986Y007496D01*
X008982Y007513D01*
X008980Y007530D01*
X008080Y005530D02*
X008080Y005380D01*
X008230Y005380D01*
X008080Y005380D02*
X008080Y005230D01*
X008080Y005380D02*
X007930Y005380D01*
X007630Y004880D02*
X007632Y004946D01*
X007638Y005011D01*
X007648Y005076D01*
X007661Y005141D01*
X007679Y005204D01*
X007700Y005267D01*
X007725Y005327D01*
X007754Y005387D01*
X007786Y005444D01*
X007821Y005500D01*
X007860Y005553D01*
X007902Y005604D01*
X007946Y005652D01*
X007994Y005697D01*
X008044Y005740D01*
X008097Y005779D01*
X008152Y005816D01*
X008209Y005849D01*
X008268Y005878D01*
X008328Y005904D01*
X008390Y005926D01*
X008453Y005945D01*
X008517Y005959D01*
X008582Y005970D01*
X008648Y005977D01*
X008714Y005980D01*
X008779Y005979D01*
X008845Y005974D01*
X008910Y005965D01*
X008975Y005952D01*
X009038Y005936D01*
X009101Y005916D01*
X009162Y005891D01*
X009222Y005864D01*
X009280Y005833D01*
X009336Y005798D01*
X009390Y005760D01*
X009441Y005719D01*
X009490Y005675D01*
X009536Y005628D01*
X009580Y005579D01*
X009620Y005527D01*
X009657Y005472D01*
X009691Y005416D01*
X009721Y005357D01*
X009748Y005297D01*
X009771Y005236D01*
X009790Y005173D01*
X009806Y005109D01*
X009818Y005044D01*
X009826Y004979D01*
X009830Y004913D01*
X009830Y004847D01*
X009826Y004781D01*
X009818Y004716D01*
X009806Y004651D01*
X009790Y004587D01*
X009771Y004524D01*
X009748Y004463D01*
X009721Y004403D01*
X009691Y004344D01*
X009657Y004288D01*
X009620Y004233D01*
X009580Y004181D01*
X009536Y004132D01*
X009490Y004085D01*
X009441Y004041D01*
X009390Y004000D01*
X009336Y003962D01*
X009280Y003927D01*
X009222Y003896D01*
X009162Y003869D01*
X009101Y003844D01*
X009038Y003824D01*
X008975Y003808D01*
X008910Y003795D01*
X008845Y003786D01*
X008779Y003781D01*
X008714Y003780D01*
X008648Y003783D01*
X008582Y003790D01*
X008517Y003801D01*
X008453Y003815D01*
X008390Y003834D01*
X008328Y003856D01*
X008268Y003882D01*
X008209Y003911D01*
X008152Y003944D01*
X008097Y003981D01*
X008044Y004020D01*
X007994Y004063D01*
X007946Y004108D01*
X007902Y004156D01*
X007860Y004207D01*
X007821Y004260D01*
X007786Y004316D01*
X007754Y004373D01*
X007725Y004433D01*
X007700Y004493D01*
X007679Y004556D01*
X007661Y004619D01*
X007648Y004684D01*
X007638Y004749D01*
X007632Y004814D01*
X007630Y004880D01*
X008080Y003530D02*
X009380Y003530D01*
X009406Y003528D01*
X009432Y003523D01*
X009457Y003515D01*
X009480Y003503D01*
X009502Y003489D01*
X009521Y003471D01*
X009539Y003452D01*
X009553Y003430D01*
X009565Y003407D01*
X009573Y003382D01*
X009578Y003356D01*
X009580Y003330D01*
X009230Y003080D02*
X008860Y003080D01*
X008610Y003080D02*
X008230Y003080D01*
X007880Y002830D02*
X007882Y002804D01*
X007887Y002778D01*
X007895Y002753D01*
X007907Y002730D01*
X007921Y002708D01*
X007939Y002689D01*
X007958Y002671D01*
X007980Y002657D01*
X008003Y002645D01*
X008028Y002637D01*
X008054Y002632D01*
X008080Y002630D01*
X009380Y002630D01*
X009406Y002632D01*
X009432Y002637D01*
X009457Y002645D01*
X009480Y002657D01*
X009502Y002671D01*
X009521Y002689D01*
X009539Y002708D01*
X009553Y002730D01*
X009565Y002753D01*
X009573Y002778D01*
X009578Y002804D01*
X009580Y002830D01*
X008257Y001350D02*
X008257Y001110D01*
X007939Y001078D01*
X007905Y000971D01*
X007854Y000871D01*
X008056Y000624D01*
X007886Y000454D01*
X007639Y000656D01*
X007539Y000605D01*
X007398Y000946D01*
X007453Y000976D01*
X007502Y001017D01*
X007540Y001066D01*
X007568Y001123D01*
X007584Y001184D01*
X007587Y001247D01*
X007577Y001310D01*
X007555Y001369D01*
X007520Y001422D01*
X007476Y001467D01*
X007424Y001502D01*
X007365Y001526D01*
X007303Y001537D01*
X007240Y001535D01*
X007178Y001520D01*
X007121Y001493D01*
X007071Y001455D01*
X007029Y001408D01*
X006998Y001353D01*
X006979Y001293D01*
X006972Y001230D01*
X006978Y001170D01*
X006996Y001112D01*
X007024Y001059D01*
X007062Y001013D01*
X007109Y000974D01*
X007162Y000946D01*
X007021Y000605D01*
X006921Y000656D01*
X006674Y000454D01*
X006504Y000624D01*
X006706Y000871D01*
X006655Y000971D01*
X006621Y001078D01*
X006303Y001110D01*
X006303Y001350D01*
X006621Y001382D01*
X006655Y001489D01*
X006706Y001589D01*
X006504Y001836D01*
X006674Y002006D01*
X006921Y001804D01*
X007021Y001855D01*
X007128Y001889D01*
X007160Y002207D01*
X007400Y002207D01*
X007432Y001889D01*
X007539Y001855D01*
X007639Y001804D01*
X007886Y002006D01*
X008056Y001836D01*
X007854Y001589D01*
X007905Y001489D01*
X007939Y001382D01*
X008257Y001350D01*
X008257Y001279D02*
X007582Y001279D01*
X007585Y001201D02*
X008257Y001201D01*
X008257Y001122D02*
X007568Y001122D01*
X007523Y001044D02*
X007928Y001044D01*
X007902Y000965D02*
X007433Y000965D01*
X007422Y000887D02*
X007862Y000887D01*
X007906Y000808D02*
X007455Y000808D01*
X007487Y000730D02*
X007970Y000730D01*
X008034Y000651D02*
X007645Y000651D01*
X007629Y000651D02*
X007520Y000651D01*
X007741Y000573D02*
X008004Y000573D01*
X007926Y000494D02*
X007837Y000494D01*
X007105Y000808D02*
X006654Y000808D01*
X006698Y000887D02*
X007138Y000887D01*
X007126Y000965D02*
X006658Y000965D01*
X006632Y001044D02*
X007037Y001044D01*
X006993Y001122D02*
X006303Y001122D01*
X006303Y001201D02*
X006975Y001201D01*
X006977Y001279D02*
X006303Y001279D01*
X006377Y001358D02*
X007001Y001358D01*
X007054Y001436D02*
X006638Y001436D01*
X006668Y001515D02*
X007166Y001515D01*
X007393Y001515D02*
X007892Y001515D01*
X007922Y001436D02*
X007507Y001436D01*
X007559Y001358D02*
X008183Y001358D01*
X007921Y001672D02*
X006639Y001672D01*
X006575Y001750D02*
X007985Y001750D01*
X008049Y001829D02*
X007669Y001829D01*
X007591Y001829D02*
X006969Y001829D01*
X006891Y001829D02*
X006511Y001829D01*
X006575Y001907D02*
X006795Y001907D01*
X006699Y001986D02*
X006654Y001986D01*
X006703Y001593D02*
X007857Y001593D01*
X007765Y001907D02*
X007985Y001907D01*
X007906Y001986D02*
X007861Y001986D01*
X007430Y001907D02*
X007130Y001907D01*
X007138Y001986D02*
X007422Y001986D01*
X007414Y002064D02*
X007146Y002064D01*
X007154Y002143D02*
X007406Y002143D01*
X007880Y003330D02*
X007882Y003356D01*
X007887Y003382D01*
X007895Y003407D01*
X007907Y003430D01*
X007921Y003452D01*
X007939Y003471D01*
X007958Y003489D01*
X007980Y003503D01*
X008003Y003515D01*
X008028Y003523D01*
X008054Y003528D01*
X008080Y003530D01*
X007073Y000730D02*
X006590Y000730D01*
X006526Y000651D02*
X006915Y000651D01*
X006931Y000651D02*
X007040Y000651D01*
X006819Y000573D02*
X006556Y000573D01*
X006634Y000494D02*
X006723Y000494D01*
X004065Y000773D02*
X004012Y000720D01*
X003852Y000720D01*
X003852Y001040D01*
X004012Y001040D01*
X004065Y000987D01*
X004065Y000773D01*
X003697Y000720D02*
X003483Y000720D01*
X003483Y001040D01*
X003697Y001040D01*
X003590Y000880D02*
X003483Y000880D01*
X003329Y000720D02*
X003115Y000720D01*
X003115Y001040D01*
X003180Y002430D02*
X002480Y002430D01*
X002463Y002432D01*
X002446Y002436D01*
X002430Y002443D01*
X002416Y002453D01*
X002403Y002466D01*
X002393Y002480D01*
X002386Y002496D01*
X002382Y002513D01*
X002380Y002530D01*
X002380Y002680D01*
X002430Y002730D01*
X002430Y004630D01*
X002380Y004680D01*
X002380Y004830D01*
X002382Y004847D01*
X002386Y004864D01*
X002393Y004880D01*
X002403Y004894D01*
X002416Y004907D01*
X002430Y004917D01*
X002446Y004924D01*
X002463Y004928D01*
X002480Y004930D01*
X003180Y004930D01*
X003197Y004928D01*
X003214Y004924D01*
X003230Y004917D01*
X003244Y004907D01*
X003257Y004894D01*
X003267Y004880D01*
X003274Y004864D01*
X003278Y004847D01*
X003280Y004830D01*
X003280Y004680D01*
X003230Y004630D01*
X003230Y002730D01*
X003280Y002680D01*
X003280Y002530D01*
X003278Y002513D01*
X003274Y002496D01*
X003267Y002480D01*
X003257Y002466D01*
X003244Y002453D01*
X003230Y002443D01*
X003214Y002436D01*
X003197Y002432D01*
X003180Y002430D01*
X002830Y008430D02*
X002830Y008680D01*
X003080Y008680D01*
X002830Y008680D02*
X003080Y009080D01*
X002580Y009080D01*
X002830Y008680D01*
X002580Y008680D01*
X002830Y008680D02*
X002830Y009280D01*
X001035Y009247D02*
X001035Y009408D01*
X001035Y009328D02*
X000715Y009328D01*
X000715Y009247D01*
X000555Y009328D02*
X000475Y009328D01*
X000555Y008984D02*
X001035Y008984D01*
X001035Y008904D02*
X001035Y009064D01*
X000955Y008708D02*
X001035Y008628D01*
X001035Y008388D01*
X000555Y008388D01*
X000555Y008628D01*
X000635Y008708D01*
X000715Y008708D01*
X000795Y008628D01*
X000795Y008388D01*
X000795Y008628D02*
X000875Y008708D01*
X000955Y008708D01*
X000555Y008904D02*
X000555Y008984D01*
X005330Y008980D02*
X005392Y008982D01*
X005453Y008988D01*
X005514Y008997D01*
X005574Y009010D01*
X005633Y009027D01*
X005691Y009048D01*
X005748Y009072D01*
X005803Y009099D01*
X005856Y009130D01*
X005908Y009164D01*
X005957Y009201D01*
X006004Y009241D01*
X006048Y009284D01*
X006089Y009329D01*
X006128Y009377D01*
X006164Y009428D01*
X006196Y009480D01*
X006225Y009534D01*
X006251Y009590D01*
X006273Y009648D01*
X006292Y009706D01*
X006307Y009766D01*
X006318Y009827D01*
X006326Y009888D01*
X006330Y009949D01*
X006330Y010011D01*
X006326Y010072D01*
X006318Y010133D01*
X006307Y010194D01*
X006292Y010254D01*
X006273Y010312D01*
X006251Y010370D01*
X006225Y010426D01*
X006196Y010480D01*
X006164Y010532D01*
X006128Y010583D01*
X006089Y010631D01*
X006048Y010676D01*
X006004Y010719D01*
X005957Y010759D01*
X005908Y010796D01*
X005856Y010830D01*
X005803Y010861D01*
X005748Y010888D01*
X005691Y010912D01*
X005633Y010933D01*
X005574Y010950D01*
X005514Y010963D01*
X005453Y010972D01*
X005392Y010978D01*
X005330Y010980D01*
X005270Y010972D01*
X005211Y010960D01*
X005152Y010944D01*
X005095Y010925D01*
X005038Y010902D01*
X004984Y010877D01*
X004931Y010847D01*
X004879Y010815D01*
X004830Y010780D01*
X004830Y009180D02*
X004879Y009145D01*
X004931Y009113D01*
X004984Y009083D01*
X005038Y009058D01*
X005095Y009035D01*
X005152Y009016D01*
X005211Y009000D01*
X005270Y008988D01*
X005330Y008980D01*
X006940Y011270D02*
X006870Y011340D01*
X006870Y011620D01*
X006940Y011690D01*
X007080Y011690D01*
X007150Y011620D01*
X007150Y011480D02*
X007010Y011480D01*
X007150Y011480D02*
X007150Y011340D01*
X007080Y011270D01*
X006940Y011270D01*
X007330Y011270D02*
X007330Y011690D01*
X007611Y011270D01*
X007611Y011690D01*
X007791Y011690D02*
X008001Y011690D01*
X008071Y011620D01*
X008071Y011340D01*
X008001Y011270D01*
X007791Y011270D01*
X007791Y011690D01*
X008725Y011872D02*
X008725Y012082D01*
X008795Y012152D01*
X008935Y012152D01*
X009005Y012082D01*
X009005Y011872D01*
X009005Y012012D02*
X009146Y012152D01*
X009075Y012332D02*
X008795Y012612D01*
X009075Y012612D01*
X009146Y012542D01*
X009146Y012402D01*
X009075Y012332D01*
X008795Y012332D01*
X008725Y012402D01*
X008725Y012542D01*
X008795Y012612D01*
X009075Y012792D02*
X009075Y012862D01*
X009146Y012862D01*
X009146Y012792D01*
X009075Y012792D01*
X009146Y013023D02*
X008865Y013303D01*
X008795Y013303D01*
X008725Y013233D01*
X008725Y013093D01*
X008795Y013023D01*
X009146Y013023D02*
X009146Y013303D01*
X009146Y011872D02*
X008725Y011872D01*
D12*
X002830Y008130D03*
D13*
X002830Y007505D03*
X002830Y009855D03*
D14*
X004130Y010100D03*
X004130Y007260D03*
X002830Y005100D03*
X002830Y002260D03*
X007030Y007260D03*
X008230Y007260D03*
X009430Y007260D03*
X009430Y010100D03*
X008230Y010100D03*
X007030Y010100D03*
M02*
