%
M48
M72
T01C0.0320
T02C0.0394
T03C0.0440
T04C0.0827
T05C0.1102
%
T01
X2080Y4180
X2580Y4930
X3080Y4180
X4180Y3680
X4180Y2680
X4180Y4680
X4180Y5680
X4580Y6680
X5780Y6680
X7180Y5680
X7180Y4680
X7180Y3680
X7180Y2680
X7980Y3080
X8480Y4880
X9480Y4880
X9380Y6680
X8180Y6680
X9980Y3080
X9380Y10680
X8180Y10680
X5780Y10680
X4580Y10680
X3380Y10680
X3380Y6680
T02
X4780Y1480
X5780Y1480
T03
X6980Y6680
X6980Y10680
X2180Y10680
X2180Y6680
T04
X3750Y12552
X5708Y12582
X7750Y12552
T05
X1558Y12483
X9432Y1263
M30
