%
M48
M72
T01C0.0300
T02C0.0320
T03C0.0394
T04C0.0440
T05C0.0827
T06C0.1102
%
T01
X5330Y6930
X5330Y7690
X5330Y8430
X5330Y9230
X5330Y9990
X5330Y10730
T02
X2830Y1680
X3930Y2680
X3930Y3680
X3930Y4680
X3930Y5680
X4130Y6680
X2830Y5680
X4130Y10680
X7030Y10680
X8230Y10680
X9430Y10680
X9430Y6680
X8230Y6680
X7030Y6680
X6930Y5680
X6930Y4680
X6930Y3680
X6930Y2680
X7730Y3080
X8230Y4880
X9230Y4880
X9730Y3080
T03
X5530Y1480
X4530Y1480
T04
X2830Y6680
X2830Y10680
T05
X3480Y12480
X5480Y12480
X7480Y12480
T06
X1308Y12483
X9182Y1263
M30
